<ttFont>
    <TTGlyph name=".notdef" xMin="102" yMin="0" xMax="922" yMax="1462">
      <contour>
        <pt x="102" y="0" on="1"/>
        <pt x="102" y="1462" on="1"/>
        <pt x="922" y="1462" on="1"/>
        <pt x="922" y="0" on="1"/>
      </contour>
      <contour>
        <pt x="201" y="98" on="1"/>
        <pt x="823" y="98" on="1"/>
        <pt x="823" y="1364" on="1"/>
        <pt x="201" y="1364" on="1"/>
      </contour>
    </TTGlyph>
    <TTGlyph name="glyph00096" xMin="164" yMin="0" xMax="2790" yMax="1483">
      <component glyphName="uni0548" x="0" y="0" flags="0x4"/>
      <component glyphName="uni0552" x="1487" y="0" flags="0x4"/>
    </TTGlyph>
    <TTGlyph name="glyph00097" xMin="41" yMin="0" xMax="2161" yMax="1124">
      <component glyphName="uni0578" x="0" y="0" flags="0x4"/>
      <component glyphName="uni0582" x="1366" y="0" flags="0x4"/>
    </TTGlyph>
    <TTGlyph name="uni0531" xMin="33" yMin="-20" xMax="1741" yMax="1462">
      <contour>
        <pt x="1384" y="1462" on="1"/>
        <pt x="1384" y="449" on="1"/>
        <pt x="1565" y="426" on="0"/>
        <pt x="1741" y="276" on="0"/>
        <pt x="1741" y="170" on="1"/>
        <pt x="1741" y="81" on="0"/>
        <pt x="1620" y="-20" on="0"/>
        <pt x="1509" y="-20" on="1"/>
        <pt x="1509" y="257" on="0"/>
        <pt x="1366" y="299" on="1"/>
        <pt x="1325" y="152" on="0"/>
        <pt x="1059" y="-20" on="0"/>
        <pt x="811" y="-20" on="1"/>
        <pt x="225" y="-20" on="0"/>
        <pt x="225" y="446" on="1"/>
        <pt x="225" y="1229" on="1"/>
        <pt x="225" y="1294" on="0"/>
        <pt x="179" y="1354" on="0"/>
        <pt x="121" y="1354" on="1"/>
        <pt x="33" y="1354" on="1"/>
        <pt x="33" y="1462" on="1"/>
        <pt x="549" y="1462" on="1"/>
        <pt x="549" y="430" on="1"/>
        <pt x="549" y="258" on="0"/>
        <pt x="688" y="125" on="0"/>
        <pt x="805" y="125" on="1"/>
        <pt x="922" y="125" on="0"/>
        <pt x="1061" y="272" on="0"/>
        <pt x="1061" y="430" on="1"/>
        <pt x="1061" y="1229" on="1"/>
        <pt x="1061" y="1292" on="0"/>
        <pt x="1010" y="1354" on="0"/>
        <pt x="944" y="1354" on="1"/>
        <pt x="846" y="1354" on="1"/>
        <pt x="846" y="1462" on="1"/>
      </contour>
      <contour>
        <pt x="1548" y="0" on="1"/>
      </contour>
    </TTGlyph>
    <TTGlyph name="uni0532" xMin="164" yMin="0" xMax="1364" yMax="1483">
      <contour>
        <pt x="999" y="901" on="1"/>
        <pt x="999" y="1044" on="1"/>
        <pt x="999" y="1217" on="0"/>
        <pt x="860" y="1350" on="0"/>
        <pt x="743" y="1350" on="1"/>
        <pt x="627" y="1350" on="0"/>
        <pt x="487" y="1202" on="0"/>
        <pt x="487" y="1044" on="1"/>
        <pt x="487" y="725" on="1"/>
        <pt x="1016" y="725" on="1"/>
        <pt x="1194" y="725" on="0"/>
        <pt x="1364" y="623" on="0"/>
        <pt x="1364" y="520" on="1"/>
        <pt x="1364" y="434" on="0"/>
        <pt x="1251" y="338" on="0"/>
        <pt x="1139" y="338" on="1"/>
        <pt x="1139" y="600" on="0"/>
        <pt x="881" y="600" on="1"/>
        <pt x="487" y="600" on="1"/>
        <pt x="487" y="0" on="1"/>
        <pt x="164" y="0" on="1"/>
        <pt x="164" y="1016" on="1"/>
        <pt x="164" y="1244" on="0"/>
        <pt x="460" y="1483" on="0"/>
        <pt x="737" y="1483" on="1"/>
        <pt x="1036" y="1483" on="0"/>
        <pt x="1323" y="1246" on="0"/>
        <pt x="1323" y="1016" on="1"/>
        <pt x="1323" y="901" on="1"/>
      </contour>
    </TTGlyph>
    <TTGlyph name="uni0533" xMin="61" yMin="0" xMax="1702" yMax="1483">
      <contour>
        <pt x="918" y="0" on="1"/>
        <pt x="918" y="559" on="1"/>
        <pt x="668" y="559" on="1"/>
        <pt x="362" y="559" on="0"/>
        <pt x="61" y="781" on="0"/>
        <pt x="61" y="1016" on="1"/>
        <pt x="61" y="1239" on="0"/>
        <pt x="373" y="1483" on="0"/>
        <pt x="657" y="1483" on="1"/>
        <pt x="936" y="1483" on="0"/>
        <pt x="1241" y="1247" on="0"/>
        <pt x="1241" y="1016" on="1"/>
        <pt x="1241" y="684" on="1"/>
        <pt x="1354" y="684" on="1"/>
        <pt x="1542" y="684" on="0"/>
        <pt x="1702" y="555" on="0"/>
        <pt x="1702" y="459" on="1"/>
        <pt x="1702" y="389" on="0"/>
        <pt x="1569" y="287" on="0"/>
        <pt x="1456" y="287" on="1"/>
        <pt x="1456" y="406" on="0"/>
        <pt x="1360" y="551" on="0"/>
        <pt x="1241" y="557" on="1"/>
        <pt x="1241" y="0" on="1"/>
      </contour>
      <contour>
        <pt x="918" y="684" on="1"/>
        <pt x="918" y="1032" on="1"/>
        <pt x="918" y="1190" on="0"/>
        <pt x="778" y="1350" on="0"/>
        <pt x="662" y="1350" on="1"/>
        <pt x="406" y="1350" on="0"/>
        <pt x="406" y="1016" on="1"/>
        <pt x="406" y="836" on="0"/>
        <pt x="545" y="684" on="0"/>
        <pt x="662" y="684" on="1"/>
      </contour>
    </TTGlyph>
    <TTGlyph name="uni0534" xMin="92" yMin="0" xMax="1712" yMax="1483">
      <contour>
        <pt x="92" y="860" on="1"/>
        <pt x="92" y="1016" on="1"/>
        <pt x="92" y="1483" on="0"/>
        <pt x="678" y="1483" on="1"/>
        <pt x="957" y="1483" on="0"/>
        <pt x="1251" y="1243" on="0"/>
        <pt x="1251" y="1016" on="1"/>
        <pt x="1251" y="848" on="1"/>
        <pt x="1364" y="848" on="1"/>
        <pt x="1474" y="848" on="0"/>
        <pt x="1630" y="800" on="0"/>
        <pt x="1712" y="709" on="0"/>
        <pt x="1712" y="651" on="1"/>
        <pt x="1712" y="559" on="0"/>
        <pt x="1579" y="451" on="0"/>
        <pt x="1466" y="451" on="1"/>
        <pt x="1466" y="569" on="0"/>
        <pt x="1370" y="715" on="0"/>
        <pt x="1251" y="721" on="1"/>
        <pt x="1251" y="0" on="1"/>
        <pt x="928" y="0" on="1"/>
        <pt x="928" y="1032" on="1"/>
        <pt x="928" y="1190" on="0"/>
        <pt x="788" y="1337" on="0"/>
        <pt x="672" y="1337" on="1"/>
        <pt x="555" y="1337" on="0"/>
        <pt x="416" y="1204" on="0"/>
        <pt x="416" y="1032" on="1"/>
        <pt x="416" y="860" on="1"/>
      </contour>
    </TTGlyph>
    <TTGlyph name="uni0535" xMin="33" yMin="-20" xMax="1425" yMax="1462">
      <contour>
        <pt x="549" y="418" on="1"/>
        <pt x="549" y="246" on="0"/>
        <pt x="688" y="113" on="0"/>
        <pt x="805" y="113" on="1"/>
        <pt x="922" y="113" on="0"/>
        <pt x="1061" y="260" on="0"/>
        <pt x="1061" y="418" on="1"/>
        <pt x="1061" y="502" on="1"/>
        <pt x="1384" y="502" on="1"/>
        <pt x="1384" y="446" on="1"/>
        <pt x="1384" y="219" on="0"/>
        <pt x="1092" y="-20" on="0"/>
        <pt x="811" y="-20" on="1"/>
        <pt x="225" y="-20" on="0"/>
        <pt x="225" y="446" on="1"/>
        <pt x="225" y="1229" on="1"/>
        <pt x="225" y="1294" on="0"/>
        <pt x="179" y="1354" on="0"/>
        <pt x="121" y="1354" on="1"/>
        <pt x="33" y="1354" on="1"/>
        <pt x="33" y="1462" on="1"/>
        <pt x="549" y="1462" on="1"/>
        <pt x="549" y="1012" on="1"/>
        <pt x="1077" y="1012" on="1"/>
        <pt x="1266" y="1012" on="0"/>
        <pt x="1425" y="883" on="0"/>
        <pt x="1425" y="786" on="1"/>
        <pt x="1425" y="717" on="0"/>
        <pt x="1313" y="625" on="0"/>
        <pt x="1200" y="625" on="1"/>
        <pt x="1200" y="887" on="0"/>
        <pt x="942" y="887" on="1"/>
        <pt x="549" y="887" on="1"/>
      </contour>
    </TTGlyph>
    <TTGlyph name="uni0536" xMin="92" yMin="-338" xMax="1323" yMax="1485">
      <contour>
        <pt x="395" y="-305" on="1"/>
        <pt x="92" y="-305" on="1"/>
        <pt x="92" y="125" on="1"/>
        <pt x="316" y="125" on="0"/>
        <pt x="707" y="341" on="0"/>
        <pt x="930" y="718" on="0"/>
        <pt x="930" y="950" on="1"/>
        <pt x="930" y="1133" on="0"/>
        <pt x="801" y="1339" on="0"/>
        <pt x="672" y="1339" on="1"/>
        <pt x="555" y="1339" on="0"/>
        <pt x="416" y="1190" on="0"/>
        <pt x="416" y="1032" on="1"/>
        <pt x="416" y="860" on="1"/>
        <pt x="92" y="860" on="1"/>
        <pt x="92" y="942" on="1"/>
        <pt x="92" y="1220" on="0"/>
        <pt x="381" y="1485" on="0"/>
        <pt x="680" y="1485" on="1"/>
        <pt x="956" y="1485" on="0"/>
        <pt x="1274" y="1203" on="0"/>
        <pt x="1274" y="950" on="1"/>
        <pt x="1274" y="765" on="0"/>
        <pt x="1110" y="455" on="0"/>
        <pt x="802" y="209" on="0"/>
        <pt x="584" y="125" on="1"/>
        <pt x="975" y="125" on="1"/>
        <pt x="1085" y="125" on="0"/>
        <pt x="1242" y="65" on="0"/>
        <pt x="1323" y="-48" on="0"/>
        <pt x="1323" y="-123" on="1"/>
        <pt x="1323" y="-221" on="0"/>
        <pt x="1190" y="-338" on="0"/>
        <pt x="1077" y="-338" on="1"/>
        <pt x="1077" y="-178" on="0"/>
        <pt x="983" y="0" on="0"/>
        <pt x="866" y="0" on="1"/>
        <pt x="395" y="0" on="1"/>
      </contour>
    </TTGlyph>
    <TTGlyph name="uni0537" xMin="53" yMin="-262" xMax="1303" yMax="1462">
      <contour>
        <pt x="236" y="1221" on="1"/>
        <pt x="236" y="1269" on="0"/>
        <pt x="213" y="1330" on="0"/>
        <pt x="175" y="1354" on="0"/>
        <pt x="131" y="1354" on="1"/>
        <pt x="53" y="1354" on="1"/>
        <pt x="53" y="1462" on="1"/>
        <pt x="559" y="1462" on="1"/>
        <pt x="559" y="936" on="1"/>
        <pt x="954" y="936" on="1"/>
        <pt x="1143" y="936" on="0"/>
        <pt x="1303" y="807" on="0"/>
        <pt x="1303" y="711" on="1"/>
        <pt x="1303" y="641" on="0"/>
        <pt x="1190" y="549" on="0"/>
        <pt x="1077" y="549" on="1"/>
        <pt x="1077" y="811" on="0"/>
        <pt x="819" y="811" on="1"/>
        <pt x="559" y="811" on="1"/>
        <pt x="559" y="125" on="1"/>
        <pt x="872" y="125" on="1"/>
        <pt x="1033" y="125" on="0"/>
        <pt x="1221" y="18" on="0"/>
        <pt x="1221" y="-78" on="1"/>
        <pt x="1221" y="-164" on="0"/>
        <pt x="1108" y="-262" on="0"/>
        <pt x="995" y="-262" on="1"/>
        <pt x="995" y="0" on="0"/>
        <pt x="737" y="0" on="1"/>
        <pt x="236" y="0" on="1"/>
      </contour>
    </TTGlyph>
    <TTGlyph name="uni0538" xMin="164" yMin="-262" xMax="1364" yMax="1483">
      <contour>
        <pt x="999" y="901" on="1"/>
        <pt x="999" y="1044" on="1"/>
        <pt x="999" y="1217" on="0"/>
        <pt x="860" y="1350" on="0"/>
        <pt x="743" y="1350" on="1"/>
        <pt x="627" y="1350" on="0"/>
        <pt x="487" y="1202" on="0"/>
        <pt x="487" y="1044" on="1"/>
        <pt x="487" y="125" on="1"/>
        <pt x="1016" y="125" on="1"/>
        <pt x="1125" y="125" on="0"/>
        <pt x="1285" y="73" on="0"/>
        <pt x="1364" y="-18" on="0"/>
        <pt x="1364" y="-78" on="1"/>
        <pt x="1364" y="-164" on="0"/>
        <pt x="1251" y="-262" on="0"/>
        <pt x="1139" y="-262" on="1"/>
        <pt x="1139" y="0" on="0"/>
        <pt x="881" y="0" on="1"/>
        <pt x="164" y="0" on="1"/>
        <pt x="164" y="1016" on="1"/>
        <pt x="164" y="1244" on="0"/>
        <pt x="460" y="1483" on="0"/>
        <pt x="737" y="1483" on="1"/>
        <pt x="1036" y="1483" on="0"/>
        <pt x="1323" y="1246" on="0"/>
        <pt x="1323" y="1016" on="1"/>
        <pt x="1323" y="901" on="1"/>
      </contour>
    </TTGlyph>
    <TTGlyph name="uni0539" xMin="164" yMin="0" xMax="1782" yMax="1483">
      <contour>
        <pt x="768" y="1358" on="1"/>
        <pt x="487" y="1358" on="0"/>
        <pt x="487" y="940" on="1"/>
        <pt x="487" y="0" on="1"/>
        <pt x="164" y="0" on="1"/>
        <pt x="164" y="856" on="1"/>
        <pt x="164" y="1185" on="0"/>
        <pt x="454" y="1483" on="0"/>
        <pt x="774" y="1483" on="1"/>
        <pt x="1042" y="1483" on="0"/>
        <pt x="1327" y="1288" on="0"/>
        <pt x="1362" y="1090" on="1"/>
        <pt x="1581" y="1075" on="0"/>
        <pt x="1782" y="961" on="0"/>
        <pt x="1782" y="856" on="1"/>
        <pt x="1782" y="786" on="0"/>
        <pt x="1659" y="684" on="0"/>
        <pt x="1546" y="684" on="1"/>
        <pt x="1549" y="730" on="1"/>
        <pt x="1549" y="898" on="0"/>
        <pt x="1374" y="956" on="1"/>
        <pt x="1370" y="701" on="0"/>
        <pt x="1162" y="467" on="0"/>
        <pt x="940" y="467" on="1"/>
        <pt x="743" y="467" on="0"/>
        <pt x="575" y="633" on="0"/>
        <pt x="575" y="774" on="1"/>
        <pt x="575" y="916" on="0"/>
        <pt x="801" y="1076" on="0"/>
        <pt x="1063" y="1090" on="1"/>
        <pt x="1019" y="1358" on="0"/>
      </contour>
      <contour>
        <pt x="858" y="774" on="1"/>
        <pt x="858" y="592" on="0"/>
        <pt x="952" y="592" on="1"/>
        <pt x="1008" y="592" on="0"/>
        <pt x="1071" y="764" on="0"/>
        <pt x="1071" y="975" on="1"/>
        <pt x="990" y="968" on="0"/>
        <pt x="898" y="929" on="0"/>
        <pt x="858" y="861" on="0"/>
      </contour>
    </TTGlyph>
    <TTGlyph name="uni053A" xMin="61" yMin="-20" xMax="1620" yMax="1462">
      <contour>
        <pt x="1374" y="526" on="1"/>
        <pt x="1374" y="661" on="0"/>
        <pt x="1274" y="793" on="0"/>
        <pt x="1159" y="817" on="1"/>
        <pt x="1159" y="485" on="1"/>
        <pt x="1159" y="-20" on="0"/>
        <pt x="616" y="-20" on="1"/>
        <pt x="343" y="-20" on="0"/>
        <pt x="61" y="229" on="0"/>
        <pt x="61" y="446" on="1"/>
        <pt x="61" y="701" on="0"/>
        <pt x="445" y="959" on="0"/>
        <pt x="836" y="971" on="1"/>
        <pt x="836" y="1221" on="1"/>
        <pt x="836" y="1269" on="0"/>
        <pt x="813" y="1330" on="0"/>
        <pt x="775" y="1354" on="0"/>
        <pt x="731" y="1354" on="1"/>
        <pt x="653" y="1354" on="1"/>
        <pt x="653" y="1462" on="1"/>
        <pt x="1159" y="1462" on="1"/>
        <pt x="1159" y="961" on="1"/>
        <pt x="1370" y="939" on="0"/>
        <pt x="1620" y="802" on="0"/>
        <pt x="1620" y="698" on="1"/>
        <pt x="1620" y="629" on="0"/>
        <pt x="1487" y="526" on="0"/>
      </contour>
      <contour>
        <pt x="836" y="838" on="1"/>
        <pt x="671" y="833" on="0"/>
        <pt x="486" y="759" on="0"/>
        <pt x="406" y="611" on="0"/>
        <pt x="406" y="446" on="1"/>
        <pt x="406" y="264" on="0"/>
        <pt x="522" y="113" on="0"/>
        <pt x="621" y="113" on="1"/>
        <pt x="719" y="113" on="0"/>
        <pt x="836" y="283" on="0"/>
        <pt x="836" y="471" on="1"/>
      </contour>
    </TTGlyph>
    <TTGlyph name="uni053B" xMin="53" yMin="0" xMax="1370" yMax="1462">
      <contour>
        <pt x="1370" y="426" on="1"/>
        <pt x="1047" y="426" on="1"/>
        <pt x="1047" y="545" on="1"/>
        <pt x="1047" y="709" on="0"/>
        <pt x="936" y="868" on="0"/>
        <pt x="801" y="868" on="1"/>
        <pt x="678" y="868" on="0"/>
        <pt x="559" y="715" on="0"/>
        <pt x="559" y="557" on="1"/>
        <pt x="559" y="0" on="1"/>
        <pt x="236" y="0" on="1"/>
        <pt x="236" y="1221" on="1"/>
        <pt x="236" y="1269" on="0"/>
        <pt x="213" y="1330" on="0"/>
        <pt x="175" y="1354" on="0"/>
        <pt x="131" y="1354" on="1"/>
        <pt x="53" y="1354" on="1"/>
        <pt x="53" y="1462" on="1"/>
        <pt x="559" y="1462" on="1"/>
        <pt x="559" y="1124" on="1"/>
        <pt x="559" y="1102" on="0"/>
        <pt x="557" y="1048" on="0"/>
        <pt x="543" y="877" on="1"/>
        <pt x="557" y="877" on="1"/>
        <pt x="606" y="952" on="0"/>
        <pt x="764" y="1040" on="0"/>
        <pt x="893" y="1040" on="1"/>
        <pt x="1136" y="1040" on="0"/>
        <pt x="1370" y="796" on="0"/>
        <pt x="1370" y="551" on="1"/>
      </contour>
    </TTGlyph>
    <TTGlyph name="uni053C" xMin="53" yMin="-262" xMax="1190" yMax="1462">
      <contour>
        <pt x="236" y="1221" on="1"/>
        <pt x="236" y="1269" on="0"/>
        <pt x="213" y="1330" on="0"/>
        <pt x="175" y="1354" on="0"/>
        <pt x="131" y="1354" on="1"/>
        <pt x="53" y="1354" on="1"/>
        <pt x="53" y="1462" on="1"/>
        <pt x="559" y="1462" on="1"/>
        <pt x="559" y="125" on="1"/>
        <pt x="842" y="125" on="1"/>
        <pt x="1006" y="125" on="0"/>
        <pt x="1190" y="14" on="0"/>
        <pt x="1190" y="-84" on="1"/>
        <pt x="1190" y="-166" on="0"/>
        <pt x="1077" y="-262" on="0"/>
        <pt x="965" y="-262" on="1"/>
        <pt x="965" y="0" on="0"/>
        <pt x="707" y="0" on="1"/>
        <pt x="236" y="0" on="1"/>
      </contour>
    </TTGlyph>
    <TTGlyph name="uni053D" xMin="53" yMin="-20" xMax="2025" yMax="1462">
      <contour>
        <pt x="2025" y="469" on="1"/>
        <pt x="2025" y="219" on="0"/>
        <pt x="1763" y="-20" on="0"/>
        <pt x="1497" y="-20" on="1"/>
        <pt x="1231" y="-20" on="0"/>
        <pt x="969" y="219" on="0"/>
        <pt x="969" y="469" on="1"/>
        <pt x="969" y="629" on="1"/>
        <pt x="969" y="797" on="0"/>
        <pt x="874" y="952" on="0"/>
        <pt x="764" y="952" on="1"/>
        <pt x="559" y="952" on="0"/>
        <pt x="559" y="641" on="1"/>
        <pt x="559" y="0" on="1"/>
        <pt x="236" y="0" on="1"/>
        <pt x="236" y="1221" on="1"/>
        <pt x="236" y="1269" on="0"/>
        <pt x="213" y="1330" on="0"/>
        <pt x="175" y="1354" on="0"/>
        <pt x="131" y="1354" on="1"/>
        <pt x="53" y="1354" on="1"/>
        <pt x="53" y="1462" on="1"/>
        <pt x="559" y="1462" on="1"/>
        <pt x="559" y="1208" on="1"/>
        <pt x="559" y="1186" on="0"/>
        <pt x="557" y="1132" on="0"/>
        <pt x="543" y="961" on="1"/>
        <pt x="557" y="961" on="1"/>
        <pt x="602" y="1036" on="0"/>
        <pt x="754" y="1124" on="0"/>
        <pt x="887" y="1124" on="1"/>
        <pt x="1091" y="1124" on="0"/>
        <pt x="1292" y="872" on="0"/>
        <pt x="1292" y="635" on="1"/>
        <pt x="1292" y="436" on="1"/>
        <pt x="1292" y="268" on="0"/>
        <pt x="1387" y="113" on="0"/>
        <pt x="1497" y="113" on="1"/>
        <pt x="1608" y="113" on="0"/>
        <pt x="1702" y="268" on="0"/>
        <pt x="1702" y="436" on="1"/>
        <pt x="1702" y="856" on="1"/>
        <pt x="1702" y="903" on="0"/>
        <pt x="1677" y="963" on="0"/>
        <pt x="1634" y="989" on="0"/>
        <pt x="1589" y="989" on="1"/>
        <pt x="1491" y="989" on="1"/>
        <pt x="1491" y="1098" on="1"/>
        <pt x="2025" y="1098" on="1"/>
      </contour>
    </TTGlyph>
    <TTGlyph name="uni053E" xMin="80" yMin="-20" xMax="1499" yMax="1526">
      <contour>
        <pt x="1085" y="1356" on="1"/>
        <pt x="886" y="1356" on="0"/>
        <pt x="737" y="1262" on="1"/>
        <pt x="1105" y="1244" on="0"/>
        <pt x="1499" y="899" on="0"/>
        <pt x="1499" y="600" on="1"/>
        <pt x="1499" y="413" on="0"/>
        <pt x="1335" y="132" on="0"/>
        <pt x="1019" y="-20" on="0"/>
        <pt x="807" y="-20" on="1"/>
        <pt x="596" y="-20" on="0"/>
        <pt x="283" y="132" on="0"/>
        <pt x="113" y="416" on="0"/>
        <pt x="113" y="600" on="1"/>
        <pt x="113" y="758" on="0"/>
        <pt x="233" y="1042" on="0"/>
        <pt x="338" y="1159" on="1"/>
        <pt x="216" y="1178" on="0"/>
        <pt x="80" y="1275" on="0"/>
        <pt x="80" y="1364" on="1"/>
        <pt x="80" y="1434" on="0"/>
        <pt x="193" y="1526" on="0"/>
        <pt x="305" y="1526" on="1"/>
        <pt x="305" y="1301" on="0"/>
        <pt x="459" y="1270" on="1"/>
        <pt x="736" y="1485" on="0"/>
        <pt x="1081" y="1485" on="1"/>
        <pt x="1487" y="1485" on="0"/>
        <pt x="1487" y="1333" on="1"/>
        <pt x="1487" y="1277" on="0"/>
        <pt x="1442" y="1241" on="1"/>
        <pt x="1386" y="1290" on="0"/>
        <pt x="1180" y="1356" on="0"/>
      </contour>
      <contour>
        <pt x="457" y="602" on="1"/>
        <pt x="457" y="371" on="0"/>
        <pt x="631" y="113" on="0"/>
        <pt x="807" y="113" on="1"/>
        <pt x="978" y="113" on="0"/>
        <pt x="1155" y="362" on="0"/>
        <pt x="1155" y="600" on="1"/>
        <pt x="1155" y="866" on="0"/>
        <pt x="899" y="1139" on="0"/>
        <pt x="649" y="1139" on="1"/>
        <pt x="608" y="1139" on="1"/>
        <pt x="524" y="1028" on="0"/>
        <pt x="457" y="743" on="0"/>
      </contour>
    </TTGlyph>
    <TTGlyph name="uni053F" xMin="33" yMin="0" xMax="1329" yMax="1462">
      <contour>
        <pt x="518" y="918" on="1"/>
        <pt x="518" y="750" on="0"/>
        <pt x="626" y="594" on="0"/>
        <pt x="743" y="594" on="1"/>
        <pt x="879" y="594" on="0"/>
        <pt x="1006" y="748" on="0"/>
        <pt x="1006" y="905" on="1"/>
        <pt x="1006" y="1098" on="1"/>
        <pt x="1329" y="1098" on="1"/>
        <pt x="1329" y="0" on="1"/>
        <pt x="1006" y="0" on="1"/>
        <pt x="1006" y="338" on="1"/>
        <pt x="1006" y="364" on="0"/>
        <pt x="1009" y="428" on="0"/>
        <pt x="1022" y="586" on="1"/>
        <pt x="1008" y="586" on="1"/>
        <pt x="958" y="510" on="0"/>
        <pt x="801" y="422" on="0"/>
        <pt x="672" y="422" on="1"/>
        <pt x="429" y="422" on="0"/>
        <pt x="195" y="666" on="0"/>
        <pt x="195" y="911" on="1"/>
        <pt x="195" y="1221" on="1"/>
        <pt x="195" y="1269" on="0"/>
        <pt x="172" y="1330" on="0"/>
        <pt x="134" y="1354" on="0"/>
        <pt x="90" y="1354" on="1"/>
        <pt x="33" y="1354" on="1"/>
        <pt x="33" y="1462" on="1"/>
        <pt x="518" y="1462" on="1"/>
      </contour>
    </TTGlyph>
    <TTGlyph name="uni0540" xMin="29" yMin="-207" xMax="932" yMax="1485">
      <contour>
        <pt x="274" y="1305" on="1"/>
        <pt x="274" y="1375" on="0"/>
        <pt x="370" y="1485" on="0"/>
        <pt x="438" y="1485" on="1"/>
        <pt x="514" y="1485" on="0"/>
        <pt x="612" y="1419" on="1"/>
        <pt x="578" y="1366" on="0"/>
        <pt x="539" y="1280" on="0"/>
        <pt x="539" y="1236" on="1"/>
        <pt x="539" y="1148" on="0"/>
        <pt x="666" y="1061" on="1"/>
        <pt x="696" y="1040" on="1"/>
        <pt x="305" y="473" on="1"/>
        <pt x="932" y="262" on="1"/>
        <pt x="772" y="-207" on="1"/>
        <pt x="670" y="-172" on="1"/>
        <pt x="707" y="-58" on="0"/>
        <pt x="707" y="-45" on="1"/>
        <pt x="707" y="-16" on="0"/>
        <pt x="668" y="31" on="0"/>
        <pt x="612" y="49" on="1"/>
        <pt x="94" y="223" on="1"/>
        <pt x="57" y="236" on="0"/>
        <pt x="29" y="268" on="0"/>
        <pt x="29" y="291" on="1"/>
        <pt x="29" y="324" on="0"/>
        <pt x="53" y="358" on="1"/>
        <pt x="502" y="1012" on="1"/>
        <pt x="274" y="1169" on="0"/>
      </contour>
    </TTGlyph>
    <TTGlyph name="uni0541" xMin="57" yMin="-150" xMax="1317" yMax="1485">
      <contour>
        <pt x="467" y="-20" on="1"/>
        <pt x="261" y="-20" on="0"/>
        <pt x="57" y="120" on="0"/>
        <pt x="57" y="250" on="1"/>
        <pt x="57" y="387" on="0"/>
        <pt x="323" y="532" on="0"/>
        <pt x="580" y="532" on="1"/>
        <pt x="733" y="532" on="0"/>
        <pt x="868" y="498" on="1"/>
        <pt x="924" y="686" on="0"/>
        <pt x="924" y="903" on="1"/>
        <pt x="924" y="1137" on="0"/>
        <pt x="795" y="1339" on="0"/>
        <pt x="666" y="1339" on="1"/>
        <pt x="549" y="1339" on="0"/>
        <pt x="410" y="1190" on="0"/>
        <pt x="410" y="1032" on="1"/>
        <pt x="410" y="860" on="1"/>
        <pt x="86" y="860" on="1"/>
        <pt x="86" y="942" on="1"/>
        <pt x="86" y="1204" on="0"/>
        <pt x="354" y="1485" on="0"/>
        <pt x="659" y="1485" on="1"/>
        <pt x="950" y="1485" on="0"/>
        <pt x="1268" y="1186" on="0"/>
        <pt x="1268" y="893" on="1"/>
        <pt x="1268" y="766" on="0"/>
        <pt x="1194" y="504" on="0"/>
        <pt x="1124" y="387" on="1"/>
        <pt x="1217" y="326" on="0"/>
        <pt x="1317" y="174" on="0"/>
        <pt x="1317" y="96" on="1"/>
        <pt x="1317" y="-8" on="0"/>
        <pt x="1209" y="-131" on="0"/>
        <pt x="1079" y="-150" on="1"/>
        <pt x="1075" y="52" on="0"/>
        <pt x="975" y="197" on="1"/>
        <pt x="760" y="-20" on="0"/>
      </contour>
      <contour>
        <pt x="526" y="104" on="1"/>
        <pt x="586" y="104" on="0"/>
        <pt x="741" y="223" on="0"/>
        <pt x="807" y="348" on="1"/>
        <pt x="705" y="408" on="0"/>
        <pt x="586" y="408" on="1"/>
        <pt x="496" y="408" on="0"/>
        <pt x="381" y="326" on="0"/>
        <pt x="381" y="254" on="1"/>
        <pt x="381" y="104" on="0"/>
      </contour>
    </TTGlyph>
    <TTGlyph name="uni0542" xMin="92" yMin="-270" xMax="1651" yMax="1483">
      <contour>
        <pt x="92" y="860" on="1"/>
        <pt x="92" y="1016" on="1"/>
        <pt x="92" y="1483" on="0"/>
        <pt x="678" y="1483" on="1"/>
        <pt x="957" y="1483" on="0"/>
        <pt x="1251" y="1243" on="0"/>
        <pt x="1251" y="1016" on="1"/>
        <pt x="1251" y="127" on="1"/>
        <pt x="1303" y="127" on="1"/>
        <pt x="1467" y="127" on="0"/>
        <pt x="1651" y="16" on="0"/>
        <pt x="1651" y="-84" on="1"/>
        <pt x="1651" y="-164" on="0"/>
        <pt x="1518" y="-270" on="0"/>
        <pt x="1405" y="-270" on="1"/>
        <pt x="1405" y="-152" on="0"/>
        <pt x="1309" y="0" on="0"/>
        <pt x="1190" y="0" on="1"/>
        <pt x="928" y="0" on="1"/>
        <pt x="928" y="1032" on="1"/>
        <pt x="928" y="1190" on="0"/>
        <pt x="788" y="1337" on="0"/>
        <pt x="672" y="1337" on="1"/>
        <pt x="555" y="1337" on="0"/>
        <pt x="416" y="1204" on="0"/>
        <pt x="416" y="1032" on="1"/>
        <pt x="416" y="860" on="1"/>
      </contour>
    </TTGlyph>
    <TTGlyph name="uni0543" xMin="98" yMin="0" xMax="1331" yMax="1485">
      <contour>
        <pt x="98" y="0" on="1"/>
        <pt x="98" y="92" on="1"/>
        <pt x="98" y="424" on="0"/>
        <pt x="286" y="990" on="0"/>
        <pt x="463" y="1190" on="1"/>
        <pt x="412" y="1200" on="0"/>
        <pt x="365" y="1200" on="1"/>
        <pt x="295" y="1200" on="0"/>
        <pt x="166" y="1163" on="0"/>
        <pt x="137" y="1139" on="1"/>
        <pt x="147" y="1358" on="0"/>
        <pt x="442" y="1358" on="1"/>
        <pt x="539" y="1358" on="0"/>
        <pt x="625" y="1339" on="1"/>
        <pt x="828" y="1485" on="0"/>
        <pt x="1032" y="1485" on="1"/>
        <pt x="1159" y="1485" on="0"/>
        <pt x="1315" y="1383" on="0"/>
        <pt x="1315" y="1300" on="1"/>
        <pt x="1315" y="1241" on="0"/>
        <pt x="1282" y="1194" on="1"/>
        <pt x="1257" y="1235" on="0"/>
        <pt x="1116" y="1303" on="0"/>
        <pt x="1026" y="1303" on="1"/>
        <pt x="932" y="1303" on="0"/>
        <pt x="831" y="1264" on="1"/>
        <pt x="1069" y="1135" on="0"/>
        <pt x="1331" y="565" on="0"/>
        <pt x="1331" y="147" on="1"/>
        <pt x="1331" y="0" on="1"/>
      </contour>
      <contour>
        <pt x="281" y="162" on="1"/>
        <pt x="1014" y="162" on="1"/>
        <pt x="998" y="529" on="0"/>
        <pt x="792" y="1031" on="0"/>
        <pt x="623" y="1130" on="1"/>
        <pt x="473" y="989" on="0"/>
        <pt x="283" y="502" on="0"/>
      </contour>
    </TTGlyph>
    <TTGlyph name="uni0544" xMin="33" yMin="-20" xMax="1845" yMax="1462">
      <contour>
        <pt x="1497" y="1462" on="1"/>
        <pt x="1686" y="1462" on="0"/>
        <pt x="1845" y="1333" on="0"/>
        <pt x="1845" y="1237" on="1"/>
        <pt x="1845" y="1167" on="0"/>
        <pt x="1712" y="1065" on="0"/>
        <pt x="1599" y="1065" on="1"/>
        <pt x="1599" y="1184" on="0"/>
        <pt x="1503" y="1329" on="0"/>
        <pt x="1384" y="1335" on="1"/>
        <pt x="1384" y="446" on="1"/>
        <pt x="1384" y="219" on="0"/>
        <pt x="1092" y="-20" on="0"/>
        <pt x="811" y="-20" on="1"/>
        <pt x="225" y="-20" on="0"/>
        <pt x="225" y="446" on="1"/>
        <pt x="225" y="1229" on="1"/>
        <pt x="225" y="1294" on="0"/>
        <pt x="179" y="1354" on="0"/>
        <pt x="121" y="1354" on="1"/>
        <pt x="33" y="1354" on="1"/>
        <pt x="33" y="1462" on="1"/>
        <pt x="549" y="1462" on="1"/>
        <pt x="549" y="430" on="1"/>
        <pt x="549" y="258" on="0"/>
        <pt x="688" y="125" on="0"/>
        <pt x="805" y="125" on="1"/>
        <pt x="922" y="125" on="0"/>
        <pt x="1061" y="272" on="0"/>
        <pt x="1061" y="430" on="1"/>
        <pt x="1061" y="1462" on="1"/>
      </contour>
    </TTGlyph>
    <TTGlyph name="uni0545" xMin="66" yMin="-20" xMax="1221" yMax="1483">
      <contour>
        <pt x="596" y="-20" on="1"/>
        <pt x="422" y="-20" on="0"/>
        <pt x="190" y="50" on="0"/>
        <pt x="66" y="180" on="0"/>
        <pt x="66" y="266" on="1"/>
        <pt x="66" y="354" on="0"/>
        <pt x="222" y="457" on="0"/>
        <pt x="336" y="457" on="1"/>
        <pt x="336" y="283" on="0"/>
        <pt x="457" y="104" on="0"/>
        <pt x="606" y="104" on="1"/>
        <pt x="727" y="104" on="0"/>
        <pt x="877" y="266" on="0"/>
        <pt x="877" y="408" on="1"/>
        <pt x="877" y="547" on="0"/>
        <pt x="723" y="702" on="0"/>
        <pt x="578" y="702" on="1"/>
        <pt x="182" y="702" on="1"/>
        <pt x="182" y="827" on="1"/>
        <pt x="588" y="827" on="1"/>
        <pt x="694" y="827" on="0"/>
        <pt x="836" y="958" on="0"/>
        <pt x="836" y="1090" on="1"/>
        <pt x="836" y="1215" on="0"/>
        <pt x="715" y="1358" on="0"/>
        <pt x="612" y="1358" on="1"/>
        <pt x="500" y="1358" on="0"/>
        <pt x="373" y="1196" on="0"/>
        <pt x="373" y="1055" on="1"/>
        <pt x="246" y="1055" on="0"/>
        <pt x="121" y="1153" on="0"/>
        <pt x="121" y="1225" on="1"/>
        <pt x="121" y="1302" on="0"/>
        <pt x="241" y="1419" on="0"/>
        <pt x="472" y="1483" on="0"/>
        <pt x="631" y="1483" on="1"/>
        <pt x="895" y="1483" on="0"/>
        <pt x="1180" y="1290" on="0"/>
        <pt x="1180" y="1118" on="1"/>
        <pt x="1180" y="1001" on="0"/>
        <pt x="1047" y="823" on="0"/>
        <pt x="901" y="778" on="1"/>
        <pt x="901" y="768" on="1"/>
        <pt x="1037" y="744" on="0"/>
        <pt x="1221" y="546" on="0"/>
        <pt x="1221" y="401" on="1"/>
        <pt x="1221" y="201" on="0"/>
        <pt x="918" y="-20" on="0"/>
      </contour>
    </TTGlyph>
    <TTGlyph name="uni0546" xMin="-20" yMin="-20" xMax="1532" yMax="1729">
      <contour>
        <pt x="1532" y="643" on="1"/>
        <pt x="1532" y="446" on="1"/>
        <pt x="1532" y="-20" on="0"/>
        <pt x="946" y="-20" on="1"/>
        <pt x="665" y="-20" on="0"/>
        <pt x="373" y="220" on="0"/>
        <pt x="373" y="446" on="1"/>
        <pt x="373" y="1331" on="1"/>
        <pt x="328" y="1331" on="1"/>
        <pt x="158" y="1331" on="0"/>
        <pt x="-20" y="1448" on="0"/>
        <pt x="-20" y="1556" on="1"/>
        <pt x="-20" y="1630" on="0"/>
        <pt x="96" y="1729" on="0"/>
        <pt x="225" y="1729" on="1"/>
        <pt x="225" y="1601" on="0"/>
        <pt x="316" y="1462" on="0"/>
        <pt x="401" y="1462" on="1"/>
        <pt x="696" y="1462" on="1"/>
        <pt x="696" y="430" on="1"/>
        <pt x="696" y="272" on="0"/>
        <pt x="836" y="125" on="0"/>
        <pt x="952" y="125" on="1"/>
        <pt x="1069" y="125" on="0"/>
        <pt x="1208" y="258" on="0"/>
        <pt x="1208" y="430" on="1"/>
        <pt x="1208" y="643" on="1"/>
      </contour>
    </TTGlyph>
    <TTGlyph name="uni0547" xMin="102" yMin="-20" xMax="1284" yMax="1495">
      <contour>
        <pt x="1225" y="1087" on="1"/>
        <pt x="1186" y="1087" on="1"/>
        <pt x="967" y="1087" on="0"/>
        <pt x="618" y="938" on="0"/>
        <pt x="446" y="673" on="0"/>
        <pt x="446" y="494" on="1"/>
        <pt x="446" y="125" on="0"/>
        <pt x="705" y="125" on="1"/>
        <pt x="821" y="125" on="0"/>
        <pt x="961" y="274" on="0"/>
        <pt x="961" y="432" on="1"/>
        <pt x="961" y="604" on="1"/>
        <pt x="1284" y="604" on="1"/>
        <pt x="1284" y="522" on="1"/>
        <pt x="1284" y="250" on="0"/>
        <pt x="1005" y="-20" on="0"/>
        <pt x="711" y="-20" on="1"/>
        <pt x="429" y="-20" on="0"/>
        <pt x="102" y="253" on="0"/>
        <pt x="102" y="494" on="1"/>
        <pt x="102" y="739" on="0"/>
        <pt x="440" y="1078" on="0"/>
        <pt x="772" y="1153" on="1"/>
        <pt x="162" y="1241" on="1"/>
        <pt x="199" y="1495" on="1"/>
        <pt x="1262" y="1339" on="1"/>
      </contour>
    </TTGlyph>
    <TTGlyph name="uni0548" xMin="164" yMin="0" xMax="1323" yMax="1483">
      <contour>
        <pt x="999" y="0" on="1"/>
        <pt x="999" y="1032" on="1"/>
        <pt x="999" y="1204" on="0"/>
        <pt x="860" y="1337" on="0"/>
        <pt x="743" y="1337" on="1"/>
        <pt x="627" y="1337" on="0"/>
        <pt x="487" y="1190" on="0"/>
        <pt x="487" y="1032" on="1"/>
        <pt x="487" y="0" on="1"/>
        <pt x="164" y="0" on="1"/>
        <pt x="164" y="1016" on="1"/>
        <pt x="164" y="1244" on="0"/>
        <pt x="460" y="1483" on="0"/>
        <pt x="737" y="1483" on="1"/>
        <pt x="1036" y="1483" on="0"/>
        <pt x="1323" y="1246" on="0"/>
        <pt x="1323" y="1016" on="1"/>
        <pt x="1323" y="0" on="1"/>
      </contour>
    </TTGlyph>
    <TTGlyph name="uni0549" xMin="92" yMin="-31" xMax="1274" yMax="1485">
      <contour>
        <pt x="152" y="377" on="1"/>
        <pt x="190" y="377" on="1"/>
        <pt x="409" y="377" on="0"/>
        <pt x="756" y="525" on="0"/>
        <pt x="930" y="790" on="0"/>
        <pt x="930" y="971" on="1"/>
        <pt x="930" y="1339" on="0"/>
        <pt x="672" y="1339" on="1"/>
        <pt x="555" y="1339" on="0"/>
        <pt x="416" y="1190" on="0"/>
        <pt x="416" y="1032" on="1"/>
        <pt x="416" y="860" on="1"/>
        <pt x="92" y="860" on="1"/>
        <pt x="92" y="942" on="1"/>
        <pt x="92" y="1204" on="0"/>
        <pt x="360" y="1485" on="0"/>
        <pt x="666" y="1485" on="1"/>
        <pt x="852" y="1485" on="0"/>
        <pt x="1130" y="1358" on="0"/>
        <pt x="1274" y="1126" on="0"/>
        <pt x="1274" y="971" on="1"/>
        <pt x="1274" y="725" on="0"/>
        <pt x="937" y="386" on="0"/>
        <pt x="604" y="311" on="1"/>
        <pt x="1214" y="223" on="1"/>
        <pt x="1178" y="-31" on="1"/>
        <pt x="115" y="125" on="1"/>
      </contour>
    </TTGlyph>
    <TTGlyph name="uni054A" xMin="102" yMin="0" xMax="1565" yMax="1483">
      <contour>
        <pt x="1241" y="0" on="1"/>
        <pt x="1241" y="975" on="1"/>
        <pt x="1241" y="1136" on="0"/>
        <pt x="1115" y="1321" on="0"/>
        <pt x="995" y="1331" on="1"/>
        <pt x="995" y="225" on="1"/>
        <pt x="672" y="399" on="1"/>
        <pt x="672" y="1331" on="1"/>
        <pt x="541" y="1317" on="0"/>
        <pt x="426" y="1122" on="0"/>
        <pt x="426" y="975" on="1"/>
        <pt x="426" y="532" on="1"/>
        <pt x="102" y="707" on="1"/>
        <pt x="102" y="958" on="1"/>
        <pt x="102" y="1214" on="0"/>
        <pt x="468" y="1483" on="0"/>
        <pt x="819" y="1483" on="1"/>
        <pt x="1565" y="1483" on="0"/>
        <pt x="1565" y="958" on="1"/>
        <pt x="1565" y="0" on="1"/>
      </contour>
    </TTGlyph>
    <TTGlyph name="uni054B" xMin="92" yMin="-338" xMax="1323" yMax="1485">
      <contour>
        <pt x="92" y="125" on="1"/>
        <pt x="258" y="125" on="0"/>
        <pt x="571" y="250" on="0"/>
        <pt x="692" y="367" on="1"/>
        <pt x="394" y="396" on="0"/>
        <pt x="92" y="673" on="0"/>
        <pt x="92" y="926" on="1"/>
        <pt x="92" y="1204" on="0"/>
        <pt x="390" y="1485" on="0"/>
        <pt x="680" y="1485" on="1"/>
        <pt x="956" y="1485" on="0"/>
        <pt x="1274" y="1203" on="0"/>
        <pt x="1274" y="950" on="1"/>
        <pt x="1274" y="765" on="0"/>
        <pt x="1110" y="455" on="0"/>
        <pt x="802" y="209" on="0"/>
        <pt x="584" y="125" on="1"/>
        <pt x="975" y="125" on="1"/>
        <pt x="1146" y="125" on="0"/>
        <pt x="1323" y="-15" on="0"/>
        <pt x="1323" y="-143" on="1"/>
        <pt x="1323" y="-227" on="0"/>
        <pt x="1190" y="-338" on="0"/>
        <pt x="1077" y="-338" on="1"/>
        <pt x="1077" y="-178" on="0"/>
        <pt x="983" y="0" on="0"/>
        <pt x="866" y="0" on="1"/>
        <pt x="395" y="0" on="1"/>
        <pt x="395" y="-305" on="1"/>
        <pt x="92" y="-305" on="1"/>
      </contour>
      <contour>
        <pt x="416" y="926" on="1"/>
        <pt x="416" y="722" on="0"/>
        <pt x="598" y="505" on="0"/>
        <pt x="795" y="492" on="1"/>
        <pt x="930" y="693" on="0"/>
        <pt x="930" y="950" on="1"/>
        <pt x="930" y="1133" on="0"/>
        <pt x="801" y="1339" on="0"/>
        <pt x="672" y="1339" on="1"/>
        <pt x="538" y="1339" on="0"/>
        <pt x="416" y="1127" on="0"/>
      </contour>
    </TTGlyph>
    <TTGlyph name="uni054C" xMin="164" yMin="0" xMax="1784" yMax="1483">
      <contour>
        <pt x="999" y="0" on="1"/>
        <pt x="999" y="1032" on="1"/>
        <pt x="999" y="1204" on="0"/>
        <pt x="860" y="1337" on="0"/>
        <pt x="743" y="1337" on="1"/>
        <pt x="627" y="1337" on="0"/>
        <pt x="487" y="1190" on="0"/>
        <pt x="487" y="1032" on="1"/>
        <pt x="487" y="0" on="1"/>
        <pt x="164" y="0" on="1"/>
        <pt x="164" y="1016" on="1"/>
        <pt x="164" y="1244" on="0"/>
        <pt x="460" y="1483" on="0"/>
        <pt x="737" y="1483" on="1"/>
        <pt x="1036" y="1483" on="0"/>
        <pt x="1323" y="1246" on="0"/>
        <pt x="1323" y="1016" on="1"/>
        <pt x="1323" y="848" on="1"/>
        <pt x="1436" y="848" on="1"/>
        <pt x="1624" y="848" on="0"/>
        <pt x="1784" y="719" on="0"/>
        <pt x="1784" y="623" on="1"/>
        <pt x="1784" y="553" on="0"/>
        <pt x="1651" y="451" on="0"/>
        <pt x="1538" y="451" on="1"/>
        <pt x="1538" y="569" on="0"/>
        <pt x="1442" y="715" on="0"/>
        <pt x="1323" y="721" on="1"/>
        <pt x="1323" y="0" on="1"/>
      </contour>
    </TTGlyph>
    <TTGlyph name="uni054D" xMin="33" yMin="-20" xMax="1384" yMax="1462">
      <contour>
        <pt x="1384" y="1462" on="1"/>
        <pt x="1384" y="446" on="1"/>
        <pt x="1384" y="219" on="0"/>
        <pt x="1092" y="-20" on="0"/>
        <pt x="811" y="-20" on="1"/>
        <pt x="225" y="-20" on="0"/>
        <pt x="225" y="446" on="1"/>
        <pt x="225" y="1229" on="1"/>
        <pt x="225" y="1294" on="0"/>
        <pt x="179" y="1354" on="0"/>
        <pt x="121" y="1354" on="1"/>
        <pt x="33" y="1354" on="1"/>
        <pt x="33" y="1462" on="1"/>
        <pt x="549" y="1462" on="1"/>
        <pt x="549" y="430" on="1"/>
        <pt x="549" y="258" on="0"/>
        <pt x="688" y="125" on="0"/>
        <pt x="805" y="125" on="1"/>
        <pt x="922" y="125" on="0"/>
        <pt x="1061" y="272" on="0"/>
        <pt x="1061" y="430" on="1"/>
        <pt x="1061" y="1229" on="1"/>
        <pt x="1061" y="1292" on="0"/>
        <pt x="1010" y="1354" on="0"/>
        <pt x="944" y="1354" on="1"/>
        <pt x="846" y="1354" on="1"/>
        <pt x="846" y="1462" on="1"/>
      </contour>
    </TTGlyph>
    <TTGlyph name="uni054E" xMin="33" yMin="-270" xMax="1729" yMax="1462">
      <contour>
        <pt x="1006" y="276" on="1"/>
        <pt x="1006" y="302" on="0"/>
        <pt x="1009" y="366" on="0"/>
        <pt x="1022" y="524" on="1"/>
        <pt x="1008" y="524" on="1"/>
        <pt x="958" y="449" on="0"/>
        <pt x="801" y="360" on="0"/>
        <pt x="672" y="360" on="1"/>
        <pt x="434" y="360" on="0"/>
        <pt x="195" y="597" on="0"/>
        <pt x="195" y="846" on="1"/>
        <pt x="195" y="856" on="1"/>
        <pt x="195" y="904" on="0"/>
        <pt x="172" y="965" on="0"/>
        <pt x="134" y="989" on="0"/>
        <pt x="90" y="989" on="1"/>
        <pt x="33" y="989" on="1"/>
        <pt x="33" y="1098" on="1"/>
        <pt x="518" y="1098" on="1"/>
        <pt x="518" y="856" on="1"/>
        <pt x="518" y="690" on="0"/>
        <pt x="624" y="532" on="0"/>
        <pt x="743" y="532" on="1"/>
        <pt x="877" y="532" on="0"/>
        <pt x="1006" y="685" on="0"/>
        <pt x="1006" y="844" on="1"/>
        <pt x="1006" y="1221" on="1"/>
        <pt x="1006" y="1269" on="0"/>
        <pt x="983" y="1330" on="0"/>
        <pt x="945" y="1354" on="0"/>
        <pt x="901" y="1354" on="1"/>
        <pt x="844" y="1354" on="1"/>
        <pt x="844" y="1462" on="1"/>
        <pt x="1329" y="1462" on="1"/>
        <pt x="1329" y="127" on="1"/>
        <pt x="1380" y="127" on="1"/>
        <pt x="1552" y="127" on="0"/>
        <pt x="1729" y="8" on="0"/>
        <pt x="1729" y="-98" on="1"/>
        <pt x="1729" y="-168" on="0"/>
        <pt x="1595" y="-270" on="0"/>
        <pt x="1483" y="-270" on="1"/>
        <pt x="1483" y="-152" on="0"/>
        <pt x="1386" y="0" on="0"/>
        <pt x="1268" y="0" on="1"/>
        <pt x="1006" y="0" on="1"/>
      </contour>
    </TTGlyph>
    <TTGlyph name="uni054F" xMin="61" yMin="-20" xMax="1098" yMax="1483">
      <contour>
        <pt x="541" y="-20" on="1"/>
        <pt x="385" y="-20" on="0"/>
        <pt x="175" y="50" on="0"/>
        <pt x="61" y="182" on="0"/>
        <pt x="61" y="266" on="1"/>
        <pt x="61" y="359" on="0"/>
        <pt x="190" y="457" on="0"/>
        <pt x="293" y="457" on="1"/>
        <pt x="293" y="281" on="0"/>
        <pt x="451" y="102" on="0"/>
        <pt x="573" y="102" on="1"/>
        <pt x="694" y="102" on="0"/>
        <pt x="827" y="229" on="0"/>
        <pt x="827" y="324" on="1"/>
        <pt x="827" y="412" on="0"/>
        <pt x="689" y="542" on="0"/>
        <pt x="485" y="625" on="1"/>
        <pt x="279" y="709" on="0"/>
        <pt x="102" y="913" on="0"/>
        <pt x="102" y="1071" on="1"/>
        <pt x="102" y="1252" on="0"/>
        <pt x="378" y="1483" on="0"/>
        <pt x="604" y="1483" on="1"/>
        <pt x="829" y="1483" on="0"/>
        <pt x="1040" y="1346" on="0"/>
        <pt x="1040" y="1245" on="1"/>
        <pt x="1040" y="1174" on="0"/>
        <pt x="915" y="1075" on="0"/>
        <pt x="788" y="1075" on="1"/>
        <pt x="788" y="1196" on="0"/>
        <pt x="668" y="1358" on="0"/>
        <pt x="571" y="1358" on="1"/>
        <pt x="487" y="1358" on="0"/>
        <pt x="369" y="1262" on="0"/>
        <pt x="369" y="1169" on="1"/>
        <pt x="369" y="1072" on="0"/>
        <pt x="522" y="935" on="0"/>
        <pt x="707" y="862" on="1"/>
        <pt x="924" y="772" on="0"/>
        <pt x="1098" y="575" on="0"/>
        <pt x="1098" y="428" on="1"/>
        <pt x="1098" y="297" on="0"/>
        <pt x="961" y="92" on="0"/>
        <pt x="707" y="-20" on="0"/>
      </contour>
    </TTGlyph>
    <TTGlyph name="uni0550" xMin="164" yMin="0" xMax="1323" yMax="1483">
      <contour>
        <pt x="999" y="860" on="1"/>
        <pt x="999" y="1032" on="1"/>
        <pt x="999" y="1204" on="0"/>
        <pt x="860" y="1337" on="0"/>
        <pt x="743" y="1337" on="1"/>
        <pt x="627" y="1337" on="0"/>
        <pt x="487" y="1190" on="0"/>
        <pt x="487" y="1032" on="1"/>
        <pt x="487" y="0" on="1"/>
        <pt x="164" y="0" on="1"/>
        <pt x="164" y="1016" on="1"/>
        <pt x="164" y="1244" on="0"/>
        <pt x="460" y="1483" on="0"/>
        <pt x="737" y="1483" on="1"/>
        <pt x="1036" y="1483" on="0"/>
        <pt x="1323" y="1246" on="0"/>
        <pt x="1323" y="1016" on="1"/>
        <pt x="1323" y="860" on="1"/>
      </contour>
    </TTGlyph>
    <TTGlyph name="uni0551" xMin="66" yMin="-20" xMax="1255" yMax="1483">
      <contour>
        <pt x="659" y="1358" on="1"/>
        <pt x="563" y="1358" on="0"/>
        <pt x="440" y="1228" on="0"/>
        <pt x="440" y="1110" on="1"/>
        <pt x="440" y="987" on="0"/>
        <pt x="569" y="864" on="0"/>
        <pt x="659" y="864" on="1"/>
        <pt x="752" y="864" on="0"/>
        <pt x="870" y="987" on="0"/>
        <pt x="870" y="1110" on="1"/>
        <pt x="870" y="1185" on="0"/>
        <pt x="812" y="1297" on="0"/>
        <pt x="714" y="1358" on="0"/>
      </contour>
      <contour>
        <pt x="375" y="815" on="1"/>
        <pt x="104" y="895" on="0"/>
        <pt x="104" y="1139" on="1"/>
        <pt x="104" y="1300" on="0"/>
        <pt x="401" y="1483" on="0"/>
        <pt x="659" y="1483" on="1"/>
        <pt x="918" y="1483" on="0"/>
        <pt x="1206" y="1303" on="0"/>
        <pt x="1206" y="1139" on="1"/>
        <pt x="1206" y="1028" on="0"/>
        <pt x="1081" y="858" on="0"/>
        <pt x="936" y="815" on="1"/>
        <pt x="936" y="805" on="1"/>
        <pt x="1074" y="777" on="0"/>
        <pt x="1255" y="575" on="0"/>
        <pt x="1255" y="438" on="1"/>
        <pt x="1255" y="212" on="0"/>
        <pt x="942" y="-20" on="0"/>
        <pt x="631" y="-20" on="1"/>
        <pt x="453" y="-20" on="0"/>
        <pt x="195" y="53" on="0"/>
        <pt x="66" y="184" on="0"/>
        <pt x="66" y="272" on="1"/>
        <pt x="66" y="338" on="0"/>
        <pt x="201" y="442" on="0"/>
        <pt x="346" y="442" on="1"/>
        <pt x="346" y="295" on="0"/>
        <pt x="492" y="104" on="0"/>
        <pt x="641" y="104" on="1"/>
        <pt x="762" y="104" on="0"/>
        <pt x="911" y="274" on="0"/>
        <pt x="911" y="422" on="1"/>
        <pt x="911" y="569" on="0"/>
        <pt x="770" y="739" on="0"/>
        <pt x="616" y="739" on="1"/>
        <pt x="524" y="739" on="0"/>
        <pt x="373" y="643" on="0"/>
        <pt x="350" y="541" on="1"/>
        <pt x="273" y="550" on="0"/>
        <pt x="186" y="611" on="0"/>
        <pt x="186" y="662" on="1"/>
        <pt x="186" y="715" on="0"/>
        <pt x="281" y="795" on="0"/>
        <pt x="375" y="805" on="1"/>
      </contour>
    </TTGlyph>
    <TTGlyph name="uni0552" xMin="53" yMin="0" xMax="1303" yMax="1462">
      <contour>
        <pt x="236" y="0" on="1"/>
        <pt x="236" y="1221" on="1"/>
        <pt x="236" y="1269" on="0"/>
        <pt x="213" y="1330" on="0"/>
        <pt x="175" y="1354" on="0"/>
        <pt x="131" y="1354" on="1"/>
        <pt x="53" y="1354" on="1"/>
        <pt x="53" y="1462" on="1"/>
        <pt x="559" y="1462" on="1"/>
        <pt x="559" y="1112" on="1"/>
        <pt x="729" y="1112" on="1"/>
        <pt x="915" y="1112" on="0"/>
        <pt x="1098" y="938" on="0"/>
        <pt x="1098" y="741" on="1"/>
        <pt x="1098" y="656" on="0"/>
        <pt x="1130" y="576" on="0"/>
        <pt x="1205" y="543" on="0"/>
        <pt x="1288" y="543" on="1"/>
        <pt x="1303" y="543" on="1"/>
        <pt x="1303" y="397" on="1"/>
        <pt x="1153" y="397" on="1"/>
        <pt x="959" y="397" on="0"/>
        <pt x="788" y="538" on="0"/>
        <pt x="788" y="713" on="1"/>
        <pt x="788" y="822" on="0"/>
        <pt x="752" y="922" on="0"/>
        <pt x="666" y="967" on="0"/>
        <pt x="588" y="967" on="1"/>
        <pt x="559" y="967" on="1"/>
        <pt x="559" y="0" on="1"/>
      </contour>
    </TTGlyph>
    <TTGlyph name="uni0553" xMin="61" yMin="0" xMax="1638" yMax="1462">
      <contour>
        <pt x="999" y="393" on="1"/>
        <pt x="1038" y="393" on="1"/>
        <pt x="1189" y="393" on="0"/>
        <pt x="1329" y="571" on="0"/>
        <pt x="1329" y="752" on="1"/>
        <pt x="1329" y="926" on="0"/>
        <pt x="1184" y="1087" on="0"/>
        <pt x="1042" y="1087" on="1"/>
        <pt x="999" y="1087" on="1"/>
      </contour>
      <contour>
        <pt x="700" y="1087" on="1"/>
        <pt x="655" y="1087" on="1"/>
        <pt x="512" y="1087" on="0"/>
        <pt x="371" y="932" on="0"/>
        <pt x="371" y="752" on="1"/>
        <pt x="371" y="571" on="0"/>
        <pt x="502" y="393" on="0"/>
        <pt x="662" y="393" on="1"/>
        <pt x="700" y="393" on="1"/>
      </contour>
      <contour>
        <pt x="999" y="1208" on="1"/>
        <pt x="1063" y="1208" on="1"/>
        <pt x="1344" y="1208" on="0"/>
        <pt x="1638" y="971" on="0"/>
        <pt x="1638" y="752" on="1"/>
        <pt x="1638" y="523" on="0"/>
        <pt x="1324" y="274" on="0"/>
        <pt x="1042" y="274" on="1"/>
        <pt x="999" y="274" on="1"/>
        <pt x="999" y="0" on="1"/>
        <pt x="700" y="0" on="1"/>
        <pt x="700" y="274" on="1"/>
        <pt x="657" y="274" on="1"/>
        <pt x="465" y="274" on="0"/>
        <pt x="198" y="391" on="0"/>
        <pt x="61" y="605" on="0"/>
        <pt x="61" y="752" on="1"/>
        <pt x="61" y="968" on="0"/>
        <pt x="354" y="1208" on="0"/>
        <pt x="635" y="1208" on="1"/>
        <pt x="700" y="1208" on="1"/>
        <pt x="700" y="1229" on="1"/>
        <pt x="700" y="1292" on="0"/>
        <pt x="629" y="1354" on="0"/>
        <pt x="532" y="1354" on="1"/>
        <pt x="506" y="1354" on="1"/>
        <pt x="506" y="1462" on="1"/>
        <pt x="999" y="1462" on="1"/>
      </contour>
    </TTGlyph>
    <TTGlyph name="uni0554" xMin="31" yMin="0" xMax="1630" yMax="1483">
      <contour>
        <pt x="440" y="416" on="1"/>
        <pt x="379" y="416" on="1"/>
        <pt x="209" y="416" on="0"/>
        <pt x="31" y="534" on="0"/>
        <pt x="31" y="641" on="1"/>
        <pt x="31" y="711" on="0"/>
        <pt x="143" y="803" on="0"/>
        <pt x="256" y="803" on="1"/>
        <pt x="255" y="768" on="1"/>
        <pt x="255" y="541" on="0"/>
        <pt x="440" y="541" on="1"/>
        <pt x="440" y="1016" on="1"/>
        <pt x="440" y="1245" on="0"/>
        <pt x="716" y="1483" on="0"/>
        <pt x="975" y="1483" on="1"/>
        <pt x="1249" y="1483" on="0"/>
        <pt x="1520" y="1272" on="0"/>
        <pt x="1520" y="1092" on="1"/>
        <pt x="1520" y="700" on="0"/>
        <pt x="985" y="700" on="1"/>
        <pt x="764" y="700" on="1"/>
        <pt x="764" y="541" on="1"/>
        <pt x="1282" y="541" on="1"/>
        <pt x="1470" y="541" on="0"/>
        <pt x="1630" y="412" on="0"/>
        <pt x="1630" y="315" on="1"/>
        <pt x="1630" y="246" on="0"/>
        <pt x="1518" y="154" on="0"/>
        <pt x="1405" y="154" on="1"/>
        <pt x="1405" y="416" on="0"/>
        <pt x="1147" y="416" on="1"/>
        <pt x="764" y="416" on="1"/>
        <pt x="764" y="0" on="1"/>
        <pt x="440" y="0" on="1"/>
      </contour>
      <contour>
        <pt x="969" y="825" on="1"/>
        <pt x="1176" y="825" on="0"/>
        <pt x="1176" y="1092" on="1"/>
        <pt x="1176" y="1358" on="0"/>
        <pt x="969" y="1358" on="1"/>
        <pt x="874" y="1358" on="0"/>
        <pt x="764" y="1227" on="0"/>
        <pt x="764" y="1059" on="1"/>
        <pt x="764" y="825" on="1"/>
      </contour>
    </TTGlyph>
    <TTGlyph name="uni0555" xMin="113" yMin="-20" xMax="1499" yMax="1485">
      <contour>
        <pt x="1499" y="733" on="1"/>
        <pt x="1499" y="504" on="0"/>
        <pt x="1333" y="161" on="0"/>
        <pt x="1019" y="-20" on="0"/>
        <pt x="807" y="-20" on="1"/>
        <pt x="472" y="-20" on="0"/>
        <pt x="113" y="377" on="0"/>
        <pt x="113" y="735" on="1"/>
        <pt x="113" y="1092" on="0"/>
        <pt x="472" y="1485" on="0"/>
        <pt x="809" y="1485" on="1"/>
        <pt x="1022" y="1485" on="0"/>
        <pt x="1334" y="1305" on="0"/>
        <pt x="1499" y="961" on="0"/>
      </contour>
      <contour>
        <pt x="457" y="733" on="1"/>
        <pt x="457" y="422" on="0"/>
        <pt x="627" y="113" on="0"/>
        <pt x="807" y="113" on="1"/>
        <pt x="985" y="113" on="0"/>
        <pt x="1155" y="414" on="0"/>
        <pt x="1155" y="733" on="1"/>
        <pt x="1155" y="1052" on="0"/>
        <pt x="985" y="1352" on="0"/>
        <pt x="809" y="1352" on="1"/>
        <pt x="631" y="1352" on="0"/>
        <pt x="457" y="1047" on="0"/>
      </contour>
    </TTGlyph>
    <TTGlyph name="uni0556" xMin="74" yMin="-20" xMax="1245" yMax="1483">
      <contour>
        <pt x="803" y="868" on="1"/>
        <pt x="1036" y="797" on="0"/>
        <pt x="1245" y="565" on="0"/>
        <pt x="1245" y="403" on="1"/>
        <pt x="1245" y="285" on="0"/>
        <pt x="1089" y="91" on="0"/>
        <pt x="807" y="-20" on="0"/>
        <pt x="631" y="-20" on="1"/>
        <pt x="449" y="-20" on="0"/>
        <pt x="203" y="49" on="0"/>
        <pt x="74" y="177" on="0"/>
        <pt x="74" y="266" on="1"/>
        <pt x="74" y="357" on="0"/>
        <pt x="199" y="457" on="0"/>
        <pt x="305" y="457" on="1"/>
        <pt x="305" y="315" on="0"/>
        <pt x="406" y="143" on="0"/>
        <pt x="520" y="115" on="1"/>
        <pt x="520" y="657" on="1"/>
        <pt x="290" y="724" on="0"/>
        <pt x="90" y="926" on="0"/>
        <pt x="90" y="1096" on="1"/>
        <pt x="90" y="1203" on="0"/>
        <pt x="236" y="1382" on="0"/>
        <pt x="495" y="1483" on="0"/>
        <pt x="645" y="1483" on="1"/>
        <pt x="715" y="1483" on="0"/>
        <pt x="803" y="1473" on="1"/>
      </contour>
      <contour>
        <pt x="975" y="324" on="1"/>
        <pt x="975" y="416" on="0"/>
        <pt x="886" y="526" on="0"/>
        <pt x="803" y="563" on="1"/>
        <pt x="803" y="123" on="1"/>
        <pt x="889" y="150" on="0"/>
        <pt x="975" y="256" on="0"/>
      </contour>
      <contour>
        <pt x="356" y="1169" on="1"/>
        <pt x="356" y="1100" on="0"/>
        <pt x="420" y="1001" on="0"/>
        <pt x="520" y="958" on="1"/>
        <pt x="520" y="1346" on="1"/>
        <pt x="356" y="1305" on="0"/>
      </contour>
    </TTGlyph>
    <TTGlyph name="uni0559" xMin="49" yMin="805" xMax="395" yMax="1485">
      <contour>
        <pt x="49" y="1094" on="1"/>
        <pt x="49" y="1221" on="0"/>
        <pt x="197" y="1434" on="0"/>
        <pt x="358" y="1485" on="1"/>
        <pt x="395" y="1389" on="1"/>
        <pt x="311" y="1358" on="0"/>
        <pt x="242" y="1266" on="0"/>
        <pt x="242" y="1204" on="1"/>
        <pt x="242" y="1155" on="0"/>
        <pt x="301" y="1067" on="0"/>
        <pt x="385" y="1061" on="1"/>
        <pt x="385" y="805" on="1"/>
        <pt x="234" y="805" on="0"/>
        <pt x="49" y="960" on="0"/>
      </contour>
    </TTGlyph>
    <TTGlyph name="uni055A" xMin="82" yMin="805" xMax="428" yMax="1485">
      <contour>
        <pt x="428" y="1196" on="1"/>
        <pt x="428" y="1069" on="0"/>
        <pt x="281" y="856" on="0"/>
        <pt x="119" y="805" on="1"/>
        <pt x="82" y="901" on="1"/>
        <pt x="166" y="932" on="0"/>
        <pt x="236" y="1024" on="0"/>
        <pt x="236" y="1085" on="1"/>
        <pt x="236" y="1135" on="0"/>
        <pt x="176" y="1223" on="0"/>
        <pt x="92" y="1229" on="1"/>
        <pt x="92" y="1485" on="1"/>
        <pt x="243" y="1485" on="0"/>
        <pt x="428" y="1330" on="0"/>
      </contour>
    </TTGlyph>
    <TTGlyph name="uni055B" xMin="57" yMin="944" xMax="455" yMax="1462">
      <contour>
        <pt x="436" y="1462" on="1"/>
        <pt x="455" y="1432" on="1"/>
        <pt x="396" y="1213" on="0"/>
        <pt x="279" y="944" on="1"/>
        <pt x="57" y="944" on="1"/>
        <pt x="89" y="1065" on="0"/>
        <pt x="150" y="1379" on="0"/>
        <pt x="162" y="1462" on="1"/>
      </contour>
    </TTGlyph>
    <TTGlyph name="uni055C" xMin="41" yMin="723" xMax="580" yMax="1483">
      <contour>
        <pt x="309" y="723" on="1"/>
        <pt x="197" y="723" on="0"/>
        <pt x="41" y="835" on="0"/>
        <pt x="41" y="938" on="1"/>
        <pt x="41" y="984" on="0"/>
        <pt x="73" y="1057" on="0"/>
        <pt x="130" y="1116" on="0"/>
        <pt x="201" y="1165" on="1"/>
        <pt x="271" y="1216" on="0"/>
        <pt x="314" y="1262" on="0"/>
        <pt x="338" y="1316" on="0"/>
        <pt x="338" y="1352" on="1"/>
        <pt x="338" y="1409" on="0"/>
        <pt x="311" y="1483" on="1"/>
        <pt x="424" y="1483" on="0"/>
        <pt x="580" y="1370" on="0"/>
        <pt x="580" y="1268" on="1"/>
        <pt x="580" y="1182" on="0"/>
        <pt x="487" y="1085" on="0"/>
        <pt x="430" y="1047" on="1"/>
        <pt x="358" y="996" on="0"/>
        <pt x="308" y="946" on="0"/>
        <pt x="283" y="891" on="0"/>
        <pt x="283" y="854" on="1"/>
        <pt x="283" y="797" on="0"/>
      </contour>
    </TTGlyph>
    <TTGlyph name="uni055D" xMin="57" yMin="944" xMax="455" yMax="1462">
      <contour>
        <pt x="350" y="1462" on="1"/>
        <pt x="361" y="1382" on="0"/>
        <pt x="423" y="1064" on="0"/>
        <pt x="455" y="944" on="1"/>
        <pt x="233" y="944" on="1"/>
        <pt x="116" y="1213" on="0"/>
        <pt x="57" y="1432" on="1"/>
        <pt x="76" y="1462" on="1"/>
      </contour>
    </TTGlyph>
    <TTGlyph name="uni055E" xMin="20" yMin="791" xMax="756" yMax="1499">
      <contour>
        <pt x="535" y="969" on="1"/>
        <pt x="340" y="969" on="0"/>
        <pt x="340" y="1174" on="1"/>
        <pt x="390" y="1149" on="0"/>
        <pt x="457" y="1149" on="1"/>
        <pt x="502" y="1149" on="0"/>
        <pt x="555" y="1204" on="0"/>
        <pt x="555" y="1251" on="1"/>
        <pt x="555" y="1298" on="0"/>
        <pt x="494" y="1354" on="0"/>
        <pt x="451" y="1354" on="1"/>
        <pt x="355" y="1354" on="0"/>
        <pt x="262" y="1162" on="0"/>
        <pt x="262" y="958" on="1"/>
        <pt x="262" y="883" on="0"/>
        <pt x="289" y="791" on="1"/>
        <pt x="162" y="791" on="0"/>
        <pt x="20" y="911" on="0"/>
        <pt x="20" y="1030" on="1"/>
        <pt x="20" y="1163" on="0"/>
        <pt x="133" y="1377" on="0"/>
        <pt x="336" y="1499" on="0"/>
        <pt x="453" y="1499" on="1"/>
        <pt x="600" y="1499" on="0"/>
        <pt x="756" y="1354" on="0"/>
        <pt x="756" y="1229" on="1"/>
        <pt x="756" y="1153" on="0"/>
        <pt x="697" y="1037" on="0"/>
        <pt x="591" y="969" on="0"/>
      </contour>
    </TTGlyph>
    <TTGlyph name="uni055F" xMin="74" yMin="985" xMax="786" yMax="1499">
      <contour>
        <pt x="786" y="985" on="1"/>
        <pt x="430" y="985" on="1"/>
        <pt x="261" y="985" on="0"/>
        <pt x="74" y="1117" on="0"/>
        <pt x="74" y="1243" on="1"/>
        <pt x="74" y="1311" on="0"/>
        <pt x="141" y="1429" on="0"/>
        <pt x="261" y="1499" on="0"/>
        <pt x="340" y="1499" on="1"/>
        <pt x="446" y="1499" on="0"/>
        <pt x="535" y="1384" on="0"/>
        <pt x="535" y="1294" on="1"/>
        <pt x="483" y="1319" on="0"/>
        <pt x="418" y="1319" on="1"/>
        <pt x="309" y="1319" on="0"/>
        <pt x="309" y="1219" on="1"/>
        <pt x="309" y="1171" on="0"/>
        <pt x="393" y="1124" on="0"/>
        <pt x="465" y="1124" on="1"/>
        <pt x="786" y="1124" on="1"/>
      </contour>
    </TTGlyph>
    <TTGlyph name="uni0561" xMin="53" yMin="-27" xMax="1968" yMax="1098">
      <contour>
        <pt x="1815" y="236" on="1"/>
        <pt x="1815" y="150" on="0"/>
        <pt x="1892" y="102" on="0"/>
        <pt x="1960" y="102" on="1"/>
        <pt x="1968" y="102" on="1"/>
        <pt x="1968" y="0" on="1"/>
        <pt x="1538" y="0" on="1"/>
        <pt x="1511" y="145" on="1"/>
        <pt x="1501" y="145" on="1"/>
        <pt x="1451" y="54" on="0"/>
        <pt x="1315" y="-27" on="0"/>
        <pt x="1188" y="-27" on="1"/>
        <pt x="946" y="-27" on="0"/>
        <pt x="879" y="145" on="1"/>
        <pt x="860" y="145" on="1"/>
        <pt x="812" y="56" on="0"/>
        <pt x="668" y="-27" on="0"/>
        <pt x="535" y="-27" on="1"/>
        <pt x="377" y="-27" on="0"/>
        <pt x="197" y="162" on="0"/>
        <pt x="197" y="369" on="1"/>
        <pt x="197" y="844" on="1"/>
        <pt x="197" y="900" on="0"/>
        <pt x="172" y="962" on="0"/>
        <pt x="120" y="989" on="0"/>
        <pt x="61" y="989" on="1"/>
        <pt x="53" y="989" on="1"/>
        <pt x="53" y="1098" on="1"/>
        <pt x="508" y="1098" on="1"/>
        <pt x="508" y="424" on="1"/>
        <pt x="508" y="291" on="0"/>
        <pt x="580" y="147" on="0"/>
        <pt x="672" y="147" on="1"/>
        <pt x="755" y="147" on="0"/>
        <pt x="850" y="298" on="0"/>
        <pt x="850" y="440" on="1"/>
        <pt x="850" y="844" on="1"/>
        <pt x="850" y="901" on="0"/>
        <pt x="826" y="963" on="0"/>
        <pt x="773" y="989" on="0"/>
        <pt x="715" y="989" on="1"/>
        <pt x="707" y="989" on="1"/>
        <pt x="707" y="1098" on="1"/>
        <pt x="1161" y="1098" on="1"/>
        <pt x="1161" y="424" on="1"/>
        <pt x="1161" y="291" on="0"/>
        <pt x="1233" y="147" on="0"/>
        <pt x="1325" y="147" on="1"/>
        <pt x="1413" y="147" on="0"/>
        <pt x="1503" y="313" on="0"/>
        <pt x="1503" y="465" on="1"/>
        <pt x="1503" y="856" on="1"/>
        <pt x="1503" y="942" on="0"/>
        <pt x="1425" y="989" on="0"/>
        <pt x="1358" y="989" on="1"/>
        <pt x="1350" y="989" on="1"/>
        <pt x="1350" y="1098" on="1"/>
        <pt x="1815" y="1098" on="1"/>
      </contour>
    </TTGlyph>
    <TTGlyph name="uni0562" xMin="27" yMin="-492" xMax="1161" yMax="1124">
      <contour>
        <pt x="850" y="346" on="1"/>
        <pt x="850" y="674" on="1"/>
        <pt x="850" y="807" on="0"/>
        <pt x="778" y="950" on="0"/>
        <pt x="686" y="950" on="1"/>
        <pt x="598" y="950" on="0"/>
        <pt x="508" y="785" on="0"/>
        <pt x="508" y="633" on="1"/>
        <pt x="508" y="145" on="1"/>
        <pt x="1161" y="145" on="1"/>
        <pt x="1161" y="0" on="1"/>
        <pt x="508" y="0" on="1"/>
        <pt x="508" y="-250" on="1"/>
        <pt x="508" y="-336" on="0"/>
        <pt x="586" y="-383" on="0"/>
        <pt x="653" y="-383" on="1"/>
        <pt x="662" y="-383" on="1"/>
        <pt x="662" y="-492" on="1"/>
        <pt x="197" y="-492" on="1"/>
        <pt x="197" y="856" on="1"/>
        <pt x="197" y="942" on="0"/>
        <pt x="119" y="989" on="0"/>
        <pt x="51" y="989" on="1"/>
        <pt x="27" y="989" on="1"/>
        <pt x="27" y="1098" on="1"/>
        <pt x="473" y="1098" on="1"/>
        <pt x="500" y="952" on="1"/>
        <pt x="510" y="952" on="1"/>
        <pt x="544" y="1017" on="0"/>
        <pt x="628" y="1091" on="0"/>
        <pt x="729" y="1124" on="0"/>
        <pt x="823" y="1124" on="1"/>
        <pt x="981" y="1124" on="0"/>
        <pt x="1161" y="936" on="0"/>
        <pt x="1161" y="729" on="1"/>
        <pt x="1161" y="346" on="1"/>
      </contour>
    </TTGlyph>
    <TTGlyph name="uni0563" xMin="94" yMin="-492" xMax="1430" yMax="1118">
      <contour>
        <pt x="1122" y="145" on="1"/>
        <pt x="1430" y="145" on="1"/>
        <pt x="1430" y="0" on="1"/>
        <pt x="1122" y="0" on="1"/>
        <pt x="1122" y="-242" on="1"/>
        <pt x="1122" y="-326" on="0"/>
        <pt x="1200" y="-383" on="0"/>
        <pt x="1288" y="-383" on="1"/>
        <pt x="1325" y="-383" on="1"/>
        <pt x="1325" y="-492" on="1"/>
        <pt x="811" y="-492" on="1"/>
        <pt x="811" y="-106" on="1"/>
        <pt x="811" y="-95" on="0"/>
        <pt x="813" y="-49" on="0"/>
        <pt x="827" y="143" on="1"/>
        <pt x="813" y="143" on="1"/>
        <pt x="714" y="-20" on="0"/>
        <pt x="508" y="-20" on="1"/>
        <pt x="94" y="-20" on="0"/>
        <pt x="94" y="551" on="1"/>
        <pt x="94" y="1118" on="0"/>
        <pt x="512" y="1118" on="1"/>
        <pt x="633" y="1118" on="0"/>
        <pt x="780" y="1022" on="0"/>
        <pt x="827" y="938" on="1"/>
        <pt x="846" y="938" on="1"/>
        <pt x="887" y="1098" on="1"/>
        <pt x="1122" y="1098" on="1"/>
      </contour>
      <contour>
        <pt x="600" y="965" on="1"/>
        <pt x="496" y="965" on="0"/>
        <pt x="410" y="760" on="0"/>
        <pt x="410" y="549" on="1"/>
        <pt x="410" y="344" on="0"/>
        <pt x="496" y="131" on="0"/>
        <pt x="600" y="131" on="1"/>
        <pt x="721" y="131" on="0"/>
        <pt x="811" y="344" on="0"/>
        <pt x="811" y="547" on="1"/>
        <pt x="811" y="760" on="0"/>
        <pt x="721" y="965" on="0"/>
      </contour>
    </TTGlyph>
    <TTGlyph name="uni0564" xMin="41" yMin="-492" xMax="1477" yMax="1124">
      <contour>
        <pt x="858" y="674" on="1"/>
        <pt x="858" y="807" on="0"/>
        <pt x="786" y="950" on="0"/>
        <pt x="694" y="950" on="1"/>
        <pt x="604" y="950" on="0"/>
        <pt x="516" y="779" on="0"/>
        <pt x="516" y="633" on="1"/>
        <pt x="516" y="242" on="1"/>
        <pt x="516" y="156" on="0"/>
        <pt x="594" y="109" on="0"/>
        <pt x="662" y="109" on="1"/>
        <pt x="670" y="109" on="1"/>
        <pt x="670" y="0" on="1"/>
        <pt x="41" y="0" on="1"/>
        <pt x="41" y="109" on="1"/>
        <pt x="49" y="109" on="1"/>
        <pt x="139" y="109" on="0"/>
        <pt x="205" y="174" on="0"/>
        <pt x="205" y="250" on="1"/>
        <pt x="205" y="856" on="1"/>
        <pt x="205" y="942" on="0"/>
        <pt x="127" y="989" on="0"/>
        <pt x="59" y="989" on="1"/>
        <pt x="51" y="989" on="1"/>
        <pt x="51" y="1098" on="1"/>
        <pt x="481" y="1098" on="1"/>
        <pt x="508" y="952" on="1"/>
        <pt x="518" y="952" on="1"/>
        <pt x="552" y="1017" on="0"/>
        <pt x="636" y="1091" on="0"/>
        <pt x="737" y="1124" on="0"/>
        <pt x="831" y="1124" on="1"/>
        <pt x="989" y="1124" on="0"/>
        <pt x="1169" y="936" on="0"/>
        <pt x="1169" y="729" on="1"/>
        <pt x="1169" y="145" on="1"/>
        <pt x="1477" y="145" on="1"/>
        <pt x="1477" y="0" on="1"/>
        <pt x="1169" y="0" on="1"/>
        <pt x="1169" y="-256" on="1"/>
        <pt x="1169" y="-342" on="0"/>
        <pt x="1247" y="-389" on="0"/>
        <pt x="1315" y="-389" on="1"/>
        <pt x="1323" y="-389" on="1"/>
        <pt x="1323" y="-492" on="1"/>
        <pt x="858" y="-492" on="1"/>
      </contour>
    </TTGlyph>
    <TTGlyph name="uni0565" xMin="43" yMin="-20" xMax="1315" yMax="1556">
      <contour>
        <pt x="1161" y="735" on="1"/>
        <pt x="1161" y="238" on="1"/>
        <pt x="1161" y="190" on="0"/>
        <pt x="1186" y="134" on="0"/>
        <pt x="1236" y="109" on="0"/>
        <pt x="1298" y="109" on="1"/>
        <pt x="1315" y="109" on="1"/>
        <pt x="1315" y="0" on="1"/>
        <pt x="907" y="0" on="1"/>
        <pt x="862" y="145" on="1"/>
        <pt x="852" y="145" on="1"/>
        <pt x="801" y="57" on="0"/>
        <pt x="656" y="-20" on="0"/>
        <pt x="528" y="-20" on="1"/>
        <pt x="197" y="-20" on="0"/>
        <pt x="197" y="385" on="1"/>
        <pt x="197" y="1303" on="1"/>
        <pt x="197" y="1393" on="0"/>
        <pt x="131" y="1448" on="0"/>
        <pt x="57" y="1448" on="1"/>
        <pt x="43" y="1448" on="1"/>
        <pt x="43" y="1556" on="1"/>
        <pt x="508" y="1556" on="1"/>
        <pt x="508" y="1098" on="1"/>
        <pt x="1161" y="1098" on="1"/>
        <pt x="1161" y="952" on="1"/>
        <pt x="508" y="952" on="1"/>
        <pt x="508" y="442" on="1"/>
        <pt x="508" y="311" on="0"/>
        <pt x="573" y="154" on="0"/>
        <pt x="664" y="154" on="1"/>
        <pt x="850" y="154" on="0"/>
        <pt x="850" y="465" on="1"/>
        <pt x="850" y="735" on="1"/>
      </contour>
    </TTGlyph>
    <TTGlyph name="uni0566" xMin="94" yMin="-492" xMax="1430" yMax="1118">
      <contour>
        <pt x="811" y="-106" on="1"/>
        <pt x="811" y="-95" on="0"/>
        <pt x="813" y="-49" on="0"/>
        <pt x="827" y="143" on="1"/>
        <pt x="813" y="143" on="1"/>
        <pt x="714" y="-20" on="0"/>
        <pt x="508" y="-20" on="1"/>
        <pt x="94" y="-20" on="0"/>
        <pt x="94" y="551" on="1"/>
        <pt x="94" y="1118" on="0"/>
        <pt x="512" y="1118" on="1"/>
        <pt x="633" y="1118" on="0"/>
        <pt x="780" y="1022" on="0"/>
        <pt x="827" y="938" on="1"/>
        <pt x="846" y="938" on="1"/>
        <pt x="887" y="1098" on="1"/>
        <pt x="1122" y="1098" on="1"/>
        <pt x="1122" y="-346" on="1"/>
        <pt x="1430" y="-346" on="1"/>
        <pt x="1430" y="-492" on="1"/>
        <pt x="811" y="-492" on="1"/>
      </contour>
      <contour>
        <pt x="600" y="965" on="1"/>
        <pt x="496" y="965" on="0"/>
        <pt x="410" y="760" on="0"/>
        <pt x="410" y="549" on="1"/>
        <pt x="410" y="344" on="0"/>
        <pt x="496" y="131" on="0"/>
        <pt x="600" y="131" on="1"/>
        <pt x="721" y="131" on="0"/>
        <pt x="811" y="344" on="0"/>
        <pt x="811" y="547" on="1"/>
        <pt x="811" y="760" on="0"/>
        <pt x="721" y="965" on="0"/>
      </contour>
    </TTGlyph>
    <TTGlyph name="uni0567" xMin="35" yMin="-293" xMax="1008" yMax="1556">
      <contour>
        <pt x="205" y="1323" on="1"/>
        <pt x="205" y="1448" on="0"/>
        <pt x="59" y="1448" on="1"/>
        <pt x="35" y="1448" on="1"/>
        <pt x="35" y="1556" on="1"/>
        <pt x="516" y="1556" on="1"/>
        <pt x="516" y="1098" on="1"/>
        <pt x="956" y="1098" on="1"/>
        <pt x="956" y="958" on="1"/>
        <pt x="516" y="958" on="1"/>
        <pt x="516" y="125" on="1"/>
        <pt x="659" y="125" on="1"/>
        <pt x="831" y="125" on="0"/>
        <pt x="1008" y="-1" on="0"/>
        <pt x="1008" y="-119" on="1"/>
        <pt x="1008" y="-193" on="0"/>
        <pt x="897" y="-293" on="0"/>
        <pt x="793" y="-293" on="1"/>
        <pt x="793" y="-133" on="0"/>
        <pt x="668" y="0" on="0"/>
        <pt x="561" y="0" on="1"/>
        <pt x="205" y="0" on="1"/>
      </contour>
    </TTGlyph>
    <TTGlyph name="uni0568" xMin="43" yMin="-492" xMax="1305" yMax="1124">
      <contour>
        <pt x="197" y="856" on="1"/>
        <pt x="197" y="942" on="0"/>
        <pt x="119" y="989" on="0"/>
        <pt x="51" y="989" on="1"/>
        <pt x="43" y="989" on="1"/>
        <pt x="43" y="1098" on="1"/>
        <pt x="473" y="1098" on="1"/>
        <pt x="500" y="952" on="1"/>
        <pt x="510" y="952" on="1"/>
        <pt x="544" y="1017" on="0"/>
        <pt x="628" y="1091" on="0"/>
        <pt x="729" y="1124" on="0"/>
        <pt x="823" y="1124" on="1"/>
        <pt x="981" y="1124" on="0"/>
        <pt x="1161" y="936" on="0"/>
        <pt x="1161" y="729" on="1"/>
        <pt x="1161" y="254" on="1"/>
        <pt x="1161" y="198" on="0"/>
        <pt x="1186" y="135" on="0"/>
        <pt x="1237" y="109" on="0"/>
        <pt x="1296" y="109" on="1"/>
        <pt x="1305" y="109" on="1"/>
        <pt x="1305" y="0" on="1"/>
        <pt x="850" y="0" on="1"/>
        <pt x="850" y="674" on="1"/>
        <pt x="850" y="807" on="0"/>
        <pt x="778" y="950" on="0"/>
        <pt x="686" y="950" on="1"/>
        <pt x="598" y="950" on="0"/>
        <pt x="508" y="785" on="0"/>
        <pt x="508" y="633" on="1"/>
        <pt x="508" y="-346" on="1"/>
        <pt x="1141" y="-346" on="1"/>
        <pt x="1141" y="-492" on="1"/>
        <pt x="197" y="-492" on="1"/>
      </contour>
    </TTGlyph>
    <TTGlyph name="uni0569" xMin="45" yMin="-492" xMax="1552" yMax="1118">
      <contour>
        <pt x="1489" y="467" on="1"/>
        <pt x="1454" y="522" on="0"/>
        <pt x="1376" y="565" on="1"/>
        <pt x="1376" y="545" on="1"/>
        <pt x="1376" y="373" on="0"/>
        <pt x="1275" y="117" on="0"/>
        <pt x="1095" y="-25" on="0"/>
        <pt x="987" y="-25" on="1"/>
        <pt x="600" y="-25" on="0"/>
        <pt x="600" y="371" on="1"/>
        <pt x="600" y="555" on="0"/>
        <pt x="819" y="750" on="0"/>
        <pt x="1038" y="754" on="1"/>
        <pt x="1010" y="858" on="0"/>
        <pt x="889" y="965" on="0"/>
        <pt x="784" y="965" on="1"/>
        <pt x="640" y="965" on="0"/>
        <pt x="508" y="770" on="0"/>
        <pt x="508" y="545" on="1"/>
        <pt x="508" y="-250" on="1"/>
        <pt x="508" y="-383" on="0"/>
        <pt x="653" y="-383" on="1"/>
        <pt x="698" y="-383" on="1"/>
        <pt x="698" y="-492" on="1"/>
        <pt x="197" y="-492" on="1"/>
        <pt x="197" y="846" on="1"/>
        <pt x="197" y="920" on="0"/>
        <pt x="137" y="989" on="0"/>
        <pt x="59" y="989" on="1"/>
        <pt x="45" y="989" on="1"/>
        <pt x="45" y="1098" on="1"/>
        <pt x="446" y="1098" on="1"/>
        <pt x="483" y="928" on="1"/>
        <pt x="492" y="928" on="1"/>
        <pt x="545" y="1008" on="0"/>
        <pt x="719" y="1118" on="0"/>
        <pt x="858" y="1118" on="1"/>
        <pt x="1071" y="1118" on="0"/>
        <pt x="1327" y="924" on="0"/>
        <pt x="1362" y="713" on="1"/>
        <pt x="1454" y="684" on="0"/>
        <pt x="1552" y="596" on="0"/>
        <pt x="1552" y="549" on="1"/>
        <pt x="1552" y="512" on="0"/>
        <pt x="1518" y="467" on="0"/>
      </contour>
      <contour>
        <pt x="956" y="104" on="1"/>
        <pt x="1061" y="104" on="0"/>
        <pt x="1061" y="543" on="1"/>
        <pt x="1061" y="589" on="0"/>
        <pt x="1057" y="635" on="1"/>
        <pt x="934" y="631" on="0"/>
        <pt x="856" y="498" on="0"/>
        <pt x="856" y="369" on="1"/>
        <pt x="856" y="236" on="0"/>
        <pt x="899" y="104" on="0"/>
      </contour>
    </TTGlyph>
    <TTGlyph name="uni056A" xMin="94" yMin="-20" xMax="1409" yMax="1556">
      <contour>
        <pt x="1122" y="1098" on="1"/>
        <pt x="1409" y="1098" on="1"/>
        <pt x="1409" y="952" on="1"/>
        <pt x="1122" y="952" on="1"/>
        <pt x="1122" y="547" on="1"/>
        <pt x="1122" y="252" on="0"/>
        <pt x="850" y="-20" on="0"/>
        <pt x="608" y="-20" on="1"/>
        <pt x="354" y="-20" on="0"/>
        <pt x="94" y="246" on="0"/>
        <pt x="94" y="535" on="1"/>
        <pt x="94" y="825" on="0"/>
        <pt x="352" y="1098" on="0"/>
        <pt x="637" y="1098" on="1"/>
        <pt x="811" y="1098" on="1"/>
        <pt x="811" y="1321" on="1"/>
        <pt x="811" y="1385" on="0"/>
        <pt x="739" y="1448" on="0"/>
        <pt x="645" y="1448" on="1"/>
        <pt x="629" y="1448" on="1"/>
        <pt x="629" y="1556" on="1"/>
        <pt x="1122" y="1556" on="1"/>
      </contour>
      <contour>
        <pt x="608" y="109" on="1"/>
        <pt x="725" y="109" on="0"/>
        <pt x="811" y="317" on="0"/>
        <pt x="811" y="537" on="1"/>
        <pt x="811" y="952" on="1"/>
        <pt x="643" y="952" on="1"/>
        <pt x="512" y="952" on="0"/>
        <pt x="410" y="748" on="0"/>
        <pt x="410" y="535" on="1"/>
        <pt x="410" y="317" on="0"/>
        <pt x="498" y="109" on="0"/>
      </contour>
    </TTGlyph>
    <TTGlyph name="uni056B" xMin="27" yMin="-492" xMax="1305" yMax="1556">
      <contour>
        <pt x="197" y="1323" on="1"/>
        <pt x="197" y="1448" on="0"/>
        <pt x="51" y="1448" on="1"/>
        <pt x="27" y="1448" on="1"/>
        <pt x="27" y="1556" on="1"/>
        <pt x="508" y="1556" on="1"/>
        <pt x="508" y="1219" on="1"/>
        <pt x="508" y="1185" on="0"/>
        <pt x="505" y="1112" on="0"/>
        <pt x="492" y="958" on="1"/>
        <pt x="510" y="958" on="1"/>
        <pt x="544" y="1021" on="0"/>
        <pt x="624" y="1092" on="0"/>
        <pt x="721" y="1124" on="0"/>
        <pt x="823" y="1124" on="1"/>
        <pt x="981" y="1124" on="0"/>
        <pt x="1161" y="936" on="0"/>
        <pt x="1161" y="729" on="1"/>
        <pt x="1161" y="254" on="1"/>
        <pt x="1161" y="198" on="0"/>
        <pt x="1186" y="135" on="0"/>
        <pt x="1237" y="109" on="0"/>
        <pt x="1296" y="109" on="1"/>
        <pt x="1305" y="109" on="1"/>
        <pt x="1305" y="0" on="1"/>
        <pt x="850" y="0" on="1"/>
        <pt x="850" y="674" on="1"/>
        <pt x="850" y="807" on="0"/>
        <pt x="778" y="950" on="0"/>
        <pt x="686" y="950" on="1"/>
        <pt x="598" y="950" on="0"/>
        <pt x="508" y="785" on="0"/>
        <pt x="508" y="633" on="1"/>
        <pt x="508" y="-250" on="1"/>
        <pt x="508" y="-336" on="0"/>
        <pt x="586" y="-383" on="0"/>
        <pt x="653" y="-383" on="1"/>
        <pt x="702" y="-383" on="1"/>
        <pt x="702" y="-492" on="1"/>
        <pt x="197" y="-492" on="1"/>
      </contour>
    </TTGlyph>
    <TTGlyph name="uni056C" xMin="43" yMin="-492" xMax="815" yMax="1098">
      <contour>
        <pt x="508" y="-346" on="1"/>
        <pt x="815" y="-346" on="1"/>
        <pt x="815" y="-492" on="1"/>
        <pt x="197" y="-492" on="1"/>
        <pt x="197" y="856" on="1"/>
        <pt x="197" y="942" on="0"/>
        <pt x="119" y="989" on="0"/>
        <pt x="51" y="989" on="1"/>
        <pt x="43" y="989" on="1"/>
        <pt x="43" y="1098" on="1"/>
        <pt x="508" y="1098" on="1"/>
      </contour>
    </TTGlyph>
    <TTGlyph name="uni056D" xMin="27" yMin="-492" xMax="1968" yMax="1556">
      <contour>
        <pt x="850" y="674" on="1"/>
        <pt x="850" y="807" on="0"/>
        <pt x="778" y="950" on="0"/>
        <pt x="686" y="950" on="1"/>
        <pt x="598" y="950" on="0"/>
        <pt x="508" y="785" on="0"/>
        <pt x="508" y="633" on="1"/>
        <pt x="508" y="-250" on="1"/>
        <pt x="508" y="-336" on="0"/>
        <pt x="586" y="-383" on="0"/>
        <pt x="653" y="-383" on="1"/>
        <pt x="702" y="-383" on="1"/>
        <pt x="702" y="-492" on="1"/>
        <pt x="197" y="-492" on="1"/>
        <pt x="197" y="1323" on="1"/>
        <pt x="197" y="1448" on="0"/>
        <pt x="51" y="1448" on="1"/>
        <pt x="27" y="1448" on="1"/>
        <pt x="27" y="1556" on="1"/>
        <pt x="508" y="1556" on="1"/>
        <pt x="508" y="1219" on="1"/>
        <pt x="508" y="1185" on="0"/>
        <pt x="505" y="1112" on="0"/>
        <pt x="492" y="958" on="1"/>
        <pt x="510" y="958" on="1"/>
        <pt x="544" y="1021" on="0"/>
        <pt x="624" y="1092" on="0"/>
        <pt x="721" y="1124" on="0"/>
        <pt x="823" y="1124" on="1"/>
        <pt x="981" y="1124" on="0"/>
        <pt x="1161" y="936" on="0"/>
        <pt x="1161" y="729" on="1"/>
        <pt x="1161" y="442" on="1"/>
        <pt x="1161" y="311" on="0"/>
        <pt x="1227" y="154" on="0"/>
        <pt x="1317" y="154" on="1"/>
        <pt x="1503" y="154" on="0"/>
        <pt x="1503" y="465" on="1"/>
        <pt x="1503" y="858" on="1"/>
        <pt x="1503" y="925" on="0"/>
        <pt x="1441" y="989" on="0"/>
        <pt x="1356" y="989" on="1"/>
        <pt x="1346" y="989" on="1"/>
        <pt x="1346" y="1098" on="1"/>
        <pt x="1815" y="1098" on="1"/>
        <pt x="1815" y="238" on="1"/>
        <pt x="1815" y="190" on="0"/>
        <pt x="1839" y="135" on="0"/>
        <pt x="1888" y="109" on="0"/>
        <pt x="1952" y="109" on="1"/>
        <pt x="1968" y="109" on="1"/>
        <pt x="1968" y="0" on="1"/>
        <pt x="1561" y="0" on="1"/>
        <pt x="1516" y="145" on="1"/>
        <pt x="1505" y="145" on="1"/>
        <pt x="1456" y="59" on="0"/>
        <pt x="1308" y="-20" on="0"/>
        <pt x="1182" y="-20" on="1"/>
        <pt x="850" y="-20" on="0"/>
        <pt x="850" y="385" on="1"/>
      </contour>
    </TTGlyph>
    <TTGlyph name="uni056E" xMin="96" yMin="-20" xMax="1270" yMax="1567">
      <contour>
        <pt x="1016" y="1356" on="1"/>
        <pt x="866" y="1356" on="0"/>
        <pt x="866" y="1237" on="1"/>
        <pt x="866" y="1196" on="0"/>
        <pt x="893" y="1116" on="0"/>
        <pt x="911" y="1092" on="1"/>
        <pt x="1094" y="1075" on="0"/>
        <pt x="1270" y="985" on="0"/>
        <pt x="1270" y="920" on="1"/>
        <pt x="1270" y="867" on="0"/>
        <pt x="1221" y="825" on="1"/>
        <pt x="1148" y="890" on="0"/>
        <pt x="1024" y="934" on="1"/>
        <pt x="1081" y="850" on="0"/>
        <pt x="1159" y="637" on="0"/>
        <pt x="1159" y="522" on="1"/>
        <pt x="1159" y="-20" on="0"/>
        <pt x="625" y="-20" on="1"/>
        <pt x="379" y="-20" on="0"/>
        <pt x="96" y="246" on="0"/>
        <pt x="96" y="500" on="1"/>
        <pt x="96" y="770" on="0"/>
        <pt x="382" y="1064" on="0"/>
        <pt x="688" y="1096" on="1"/>
        <pt x="663" y="1139" on="1"/>
        <pt x="638" y="1177" on="0"/>
        <pt x="600" y="1285" on="0"/>
        <pt x="600" y="1329" on="1"/>
        <pt x="600" y="1434" on="0"/>
        <pt x="709" y="1567" on="0"/>
        <pt x="803" y="1567" on="1"/>
        <pt x="889" y="1567" on="0"/>
        <pt x="1016" y="1468" on="0"/>
      </contour>
      <contour>
        <pt x="414" y="516" on="1"/>
        <pt x="414" y="319" on="0"/>
        <pt x="510" y="109" on="0"/>
        <pt x="629" y="109" on="1"/>
        <pt x="748" y="109" on="0"/>
        <pt x="842" y="319" on="0"/>
        <pt x="842" y="516" on="1"/>
        <pt x="842" y="670" on="0"/>
        <pt x="788" y="903" on="0"/>
        <pt x="745" y="967" on="1"/>
        <pt x="572" y="950" on="0"/>
        <pt x="414" y="726" on="0"/>
      </contour>
    </TTGlyph>
    <TTGlyph name="uni056F" xMin="45" yMin="-492" xMax="1307" yMax="1556">
      <contour>
        <pt x="834" y="-492" on="1"/>
        <pt x="840" y="-33" on="1"/>
        <pt x="840" y="14" on="0"/>
        <pt x="850" y="104" on="0"/>
        <pt x="854" y="145" on="1"/>
        <pt x="844" y="145" on="1"/>
        <pt x="793" y="59" on="0"/>
        <pt x="648" y="-20" on="0"/>
        <pt x="520" y="-20" on="1"/>
        <pt x="188" y="-20" on="0"/>
        <pt x="188" y="385" on="1"/>
        <pt x="188" y="1303" on="1"/>
        <pt x="188" y="1387" on="0"/>
        <pt x="131" y="1448" on="0"/>
        <pt x="53" y="1448" on="1"/>
        <pt x="45" y="1448" on="1"/>
        <pt x="45" y="1556" on="1"/>
        <pt x="500" y="1556" on="1"/>
        <pt x="500" y="442" on="1"/>
        <pt x="500" y="311" on="0"/>
        <pt x="565" y="154" on="0"/>
        <pt x="655" y="154" on="1"/>
        <pt x="842" y="154" on="0"/>
        <pt x="842" y="465" on="1"/>
        <pt x="842" y="858" on="1"/>
        <pt x="842" y="928" on="0"/>
        <pt x="778" y="989" on="0"/>
        <pt x="696" y="989" on="1"/>
        <pt x="688" y="989" on="1"/>
        <pt x="688" y="1098" on="1"/>
        <pt x="1153" y="1098" on="1"/>
        <pt x="1153" y="-254" on="1"/>
        <pt x="1153" y="-302" on="0"/>
        <pt x="1179" y="-357" on="0"/>
        <pt x="1226" y="-383" on="0"/>
        <pt x="1290" y="-383" on="1"/>
        <pt x="1307" y="-383" on="1"/>
        <pt x="1307" y="-492" on="1"/>
      </contour>
    </TTGlyph>
    <TTGlyph name="uni0570" xMin="35" yMin="0" xMax="1313" yMax="1556">
      <contour>
        <pt x="858" y="0" on="1"/>
        <pt x="858" y="674" on="1"/>
        <pt x="858" y="807" on="0"/>
        <pt x="786" y="950" on="0"/>
        <pt x="694" y="950" on="1"/>
        <pt x="604" y="950" on="0"/>
        <pt x="516" y="779" on="0"/>
        <pt x="516" y="633" on="1"/>
        <pt x="516" y="242" on="1"/>
        <pt x="516" y="156" on="0"/>
        <pt x="596" y="109" on="0"/>
        <pt x="664" y="109" on="1"/>
        <pt x="670" y="109" on="1"/>
        <pt x="670" y="0" on="1"/>
        <pt x="41" y="0" on="1"/>
        <pt x="41" y="109" on="1"/>
        <pt x="45" y="109" on="1"/>
        <pt x="136" y="109" on="0"/>
        <pt x="205" y="176" on="0"/>
        <pt x="205" y="250" on="1"/>
        <pt x="205" y="1323" on="1"/>
        <pt x="205" y="1448" on="0"/>
        <pt x="59" y="1448" on="1"/>
        <pt x="35" y="1448" on="1"/>
        <pt x="35" y="1556" on="1"/>
        <pt x="516" y="1556" on="1"/>
        <pt x="516" y="1219" on="1"/>
        <pt x="516" y="1185" on="0"/>
        <pt x="513" y="1112" on="0"/>
        <pt x="500" y="958" on="1"/>
        <pt x="518" y="958" on="1"/>
        <pt x="552" y="1021" on="0"/>
        <pt x="632" y="1092" on="0"/>
        <pt x="729" y="1124" on="0"/>
        <pt x="831" y="1124" on="1"/>
        <pt x="989" y="1124" on="0"/>
        <pt x="1169" y="936" on="0"/>
        <pt x="1169" y="729" on="1"/>
        <pt x="1169" y="254" on="1"/>
        <pt x="1169" y="198" on="0"/>
        <pt x="1193" y="137" on="0"/>
        <pt x="1247" y="109" on="0"/>
        <pt x="1307" y="109" on="1"/>
        <pt x="1313" y="109" on="1"/>
        <pt x="1313" y="0" on="1"/>
      </contour>
    </TTGlyph>
    <TTGlyph name="uni0571" xMin="94" yMin="-20" xMax="1272" yMax="1583">
      <contour>
        <pt x="688" y="1171" on="1"/>
        <pt x="688" y="1122" on="0"/>
        <pt x="676" y="1081" on="1"/>
        <pt x="902" y="1033" on="0"/>
        <pt x="1122" y="755" on="0"/>
        <pt x="1122" y="494" on="1"/>
        <pt x="1122" y="252" on="1"/>
        <pt x="1122" y="174" on="0"/>
        <pt x="1183" y="109" on="0"/>
        <pt x="1264" y="109" on="1"/>
        <pt x="1272" y="109" on="1"/>
        <pt x="1272" y="0" on="1"/>
        <pt x="903" y="0" on="1"/>
        <pt x="846" y="160" on="1"/>
        <pt x="827" y="160" on="1"/>
        <pt x="780" y="76" on="0"/>
        <pt x="633" y="-20" on="0"/>
        <pt x="512" y="-20" on="1"/>
        <pt x="94" y="-20" on="0"/>
        <pt x="94" y="516" on="1"/>
        <pt x="94" y="664" on="0"/>
        <pt x="246" y="924" on="0"/>
        <pt x="399" y="1022" on="1"/>
        <pt x="453" y="1056" on="0"/>
        <pt x="518" y="1119" on="0"/>
        <pt x="547" y="1178" on="0"/>
        <pt x="547" y="1225" on="1"/>
        <pt x="547" y="1251" on="0"/>
        <pt x="526" y="1290" on="0"/>
        <pt x="504" y="1329" on="0"/>
        <pt x="483" y="1376" on="0"/>
        <pt x="483" y="1411" on="1"/>
        <pt x="483" y="1497" on="0"/>
        <pt x="592" y="1583" on="0"/>
        <pt x="680" y="1583" on="1"/>
        <pt x="864" y="1583" on="0"/>
        <pt x="864" y="1395" on="1"/>
        <pt x="756" y="1395" on="0"/>
        <pt x="653" y="1366" on="0"/>
        <pt x="653" y="1323" on="1"/>
        <pt x="653" y="1292" on="0"/>
        <pt x="688" y="1229" on="0"/>
      </contour>
      <contour>
        <pt x="811" y="537" on="1"/>
        <pt x="811" y="723" on="0"/>
        <pt x="696" y="926" on="0"/>
        <pt x="604" y="971" on="1"/>
        <pt x="530" y="901" on="1"/>
        <pt x="461" y="834" on="0"/>
        <pt x="410" y="659" on="0"/>
        <pt x="410" y="512" on="1"/>
        <pt x="410" y="330" on="0"/>
        <pt x="496" y="133" on="0"/>
        <pt x="600" y="133" on="1"/>
        <pt x="721" y="133" on="0"/>
        <pt x="811" y="332" on="0"/>
      </contour>
    </TTGlyph>
    <TTGlyph name="uni0572" xMin="41" yMin="-492" xMax="1477" yMax="1124">
      <contour>
        <pt x="858" y="-492" on="1"/>
        <pt x="858" y="674" on="1"/>
        <pt x="858" y="807" on="0"/>
        <pt x="786" y="950" on="0"/>
        <pt x="694" y="950" on="1"/>
        <pt x="604" y="950" on="0"/>
        <pt x="516" y="779" on="0"/>
        <pt x="516" y="633" on="1"/>
        <pt x="516" y="242" on="1"/>
        <pt x="516" y="156" on="0"/>
        <pt x="594" y="109" on="0"/>
        <pt x="662" y="109" on="1"/>
        <pt x="670" y="109" on="1"/>
        <pt x="670" y="0" on="1"/>
        <pt x="41" y="0" on="1"/>
        <pt x="41" y="109" on="1"/>
        <pt x="49" y="109" on="1"/>
        <pt x="139" y="109" on="0"/>
        <pt x="205" y="174" on="0"/>
        <pt x="205" y="250" on="1"/>
        <pt x="205" y="856" on="1"/>
        <pt x="205" y="942" on="0"/>
        <pt x="127" y="989" on="0"/>
        <pt x="59" y="989" on="1"/>
        <pt x="51" y="989" on="1"/>
        <pt x="51" y="1098" on="1"/>
        <pt x="481" y="1098" on="1"/>
        <pt x="508" y="952" on="1"/>
        <pt x="518" y="952" on="1"/>
        <pt x="552" y="1017" on="0"/>
        <pt x="636" y="1091" on="0"/>
        <pt x="737" y="1124" on="0"/>
        <pt x="831" y="1124" on="1"/>
        <pt x="989" y="1124" on="0"/>
        <pt x="1169" y="936" on="0"/>
        <pt x="1169" y="729" on="1"/>
        <pt x="1169" y="-346" on="1"/>
        <pt x="1477" y="-346" on="1"/>
        <pt x="1477" y="-492" on="1"/>
      </contour>
    </TTGlyph>
    <TTGlyph name="uni0573" xMin="31" yMin="-20" xMax="1315" yMax="1575">
      <contour>
        <pt x="508" y="442" on="1"/>
        <pt x="508" y="311" on="0"/>
        <pt x="573" y="154" on="0"/>
        <pt x="664" y="154" on="1"/>
        <pt x="850" y="154" on="0"/>
        <pt x="850" y="465" on="1"/>
        <pt x="850" y="725" on="1"/>
        <pt x="850" y="852" on="0"/>
        <pt x="743" y="958" on="0"/>
        <pt x="639" y="958" on="1"/>
        <pt x="508" y="958" on="1"/>
      </contour>
      <contour>
        <pt x="754" y="1098" on="1"/>
        <pt x="965" y="1098" on="0"/>
        <pt x="1161" y="907" on="0"/>
        <pt x="1161" y="686" on="1"/>
        <pt x="1161" y="238" on="1"/>
        <pt x="1161" y="190" on="0"/>
        <pt x="1186" y="134" on="0"/>
        <pt x="1236" y="109" on="0"/>
        <pt x="1298" y="109" on="1"/>
        <pt x="1315" y="109" on="1"/>
        <pt x="1315" y="0" on="1"/>
        <pt x="907" y="0" on="1"/>
        <pt x="862" y="145" on="1"/>
        <pt x="852" y="145" on="1"/>
        <pt x="801" y="57" on="0"/>
        <pt x="656" y="-20" on="0"/>
        <pt x="528" y="-20" on="1"/>
        <pt x="197" y="-20" on="0"/>
        <pt x="197" y="385" on="1"/>
        <pt x="197" y="958" on="1"/>
        <pt x="31" y="958" on="1"/>
        <pt x="31" y="1098" on="1"/>
        <pt x="197" y="1098" on="1"/>
        <pt x="197" y="1110" on="1"/>
        <pt x="197" y="1333" on="0"/>
        <pt x="436" y="1575" on="0"/>
        <pt x="698" y="1575" on="1"/>
        <pt x="1110" y="1575" on="0"/>
        <pt x="1110" y="1360" on="1"/>
        <pt x="1110" y="1294" on="0"/>
        <pt x="991" y="1198" on="0"/>
        <pt x="852" y="1198" on="1"/>
        <pt x="852" y="1309" on="0"/>
        <pt x="772" y="1458" on="0"/>
        <pt x="676" y="1458" on="1"/>
        <pt x="508" y="1458" on="0"/>
        <pt x="508" y="1196" on="1"/>
        <pt x="508" y="1098" on="1"/>
      </contour>
    </TTGlyph>
    <TTGlyph name="uni0574" xMin="53" yMin="-20" xMax="1315" yMax="1571">
      <contour>
        <pt x="1161" y="238" on="1"/>
        <pt x="1161" y="190" on="0"/>
        <pt x="1186" y="134" on="0"/>
        <pt x="1236" y="109" on="0"/>
        <pt x="1298" y="109" on="1"/>
        <pt x="1315" y="109" on="1"/>
        <pt x="1315" y="0" on="1"/>
        <pt x="907" y="0" on="1"/>
        <pt x="862" y="145" on="1"/>
        <pt x="852" y="145" on="1"/>
        <pt x="801" y="57" on="0"/>
        <pt x="656" y="-20" on="0"/>
        <pt x="528" y="-20" on="1"/>
        <pt x="197" y="-20" on="0"/>
        <pt x="197" y="385" on="1"/>
        <pt x="197" y="844" on="1"/>
        <pt x="197" y="924" on="0"/>
        <pt x="142" y="989" on="0"/>
        <pt x="61" y="989" on="1"/>
        <pt x="53" y="989" on="1"/>
        <pt x="53" y="1098" on="1"/>
        <pt x="508" y="1098" on="1"/>
        <pt x="508" y="442" on="1"/>
        <pt x="508" y="311" on="0"/>
        <pt x="573" y="154" on="0"/>
        <pt x="664" y="154" on="1"/>
        <pt x="850" y="154" on="0"/>
        <pt x="850" y="465" on="1"/>
        <pt x="850" y="1014" on="1"/>
        <pt x="758" y="1040" on="0"/>
        <pt x="672" y="1180" on="0"/>
        <pt x="672" y="1276" on="1"/>
        <pt x="672" y="1407" on="0"/>
        <pt x="855" y="1571" on="0"/>
        <pt x="1016" y="1571" on="1"/>
        <pt x="1122" y="1571" on="0"/>
        <pt x="1200" y="1507" on="0"/>
        <pt x="1200" y="1450" on="1"/>
        <pt x="1200" y="1440" on="0"/>
        <pt x="1192" y="1401" on="0"/>
        <pt x="1184" y="1391" on="1"/>
        <pt x="1141" y="1411" on="0"/>
        <pt x="1096" y="1411" on="1"/>
        <pt x="954" y="1411" on="0"/>
        <pt x="954" y="1255" on="1"/>
        <pt x="954" y="1190" on="0"/>
        <pt x="1051" y="1098" on="0"/>
        <pt x="1161" y="1098" on="1"/>
      </contour>
    </TTGlyph>
    <TTGlyph name="uni0575" xMin="-8" yMin="-492" xMax="516" yMax="1098">
      <contour>
        <pt x="516" y="1098" on="1"/>
        <pt x="516" y="-16" on="1"/>
        <pt x="516" y="-256" on="0"/>
        <pt x="280" y="-492" on="0"/>
        <pt x="31" y="-492" on="1"/>
        <pt x="-8" y="-492" on="1"/>
        <pt x="-8" y="-365" on="1"/>
        <pt x="4" y="-365" on="1"/>
        <pt x="112" y="-365" on="0"/>
        <pt x="205" y="-187" on="0"/>
        <pt x="205" y="0" on="1"/>
        <pt x="205" y="854" on="1"/>
        <pt x="205" y="922" on="0"/>
        <pt x="130" y="989" on="0"/>
        <pt x="41" y="989" on="1"/>
        <pt x="35" y="989" on="1"/>
        <pt x="35" y="1098" on="1"/>
      </contour>
    </TTGlyph>
    <TTGlyph name="uni0576" xMin="-20" yMin="-20" xMax="1274" yMax="1571">
      <contour>
        <pt x="156" y="1014" on="1"/>
        <pt x="63" y="1040" on="0"/>
        <pt x="-20" y="1180" on="0"/>
        <pt x="-20" y="1276" on="1"/>
        <pt x="-20" y="1407" on="0"/>
        <pt x="163" y="1571" on="0"/>
        <pt x="324" y="1571" on="1"/>
        <pt x="430" y="1571" on="0"/>
        <pt x="516" y="1507" on="0"/>
        <pt x="516" y="1450" on="1"/>
        <pt x="516" y="1440" on="0"/>
        <pt x="508" y="1401" on="0"/>
        <pt x="500" y="1391" on="1"/>
        <pt x="457" y="1411" on="0"/>
        <pt x="401" y="1411" on="1"/>
        <pt x="330" y="1411" on="0"/>
        <pt x="262" y="1327" on="0"/>
        <pt x="262" y="1255" on="1"/>
        <pt x="262" y="1190" on="0"/>
        <pt x="356" y="1098" on="0"/>
        <pt x="467" y="1098" on="1"/>
        <pt x="467" y="442" on="1"/>
        <pt x="467" y="311" on="0"/>
        <pt x="532" y="154" on="0"/>
        <pt x="623" y="154" on="1"/>
        <pt x="809" y="154" on="0"/>
        <pt x="809" y="465" on="1"/>
        <pt x="809" y="858" on="1"/>
        <pt x="809" y="928" on="0"/>
        <pt x="745" y="989" on="0"/>
        <pt x="664" y="989" on="1"/>
        <pt x="655" y="989" on="1"/>
        <pt x="655" y="1098" on="1"/>
        <pt x="1120" y="1098" on="1"/>
        <pt x="1120" y="238" on="1"/>
        <pt x="1120" y="190" on="0"/>
        <pt x="1145" y="134" on="0"/>
        <pt x="1195" y="109" on="0"/>
        <pt x="1257" y="109" on="1"/>
        <pt x="1274" y="109" on="1"/>
        <pt x="1274" y="0" on="1"/>
        <pt x="866" y="0" on="1"/>
        <pt x="821" y="145" on="1"/>
        <pt x="811" y="145" on="1"/>
        <pt x="760" y="57" on="0"/>
        <pt x="615" y="-20" on="0"/>
        <pt x="487" y="-20" on="1"/>
        <pt x="156" y="-20" on="0"/>
        <pt x="156" y="385" on="1"/>
      </contour>
    </TTGlyph>
    <TTGlyph name="uni0577" xMin="49" yMin="-492" xMax="1047" yMax="1124">
      <contour>
        <pt x="713" y="702" on="1"/>
        <pt x="713" y="842" on="0"/>
        <pt x="616" y="999" on="0"/>
        <pt x="532" y="999" on="1"/>
        <pt x="414" y="999" on="0"/>
        <pt x="319" y="803" on="0"/>
        <pt x="319" y="608" on="1"/>
        <pt x="199" y="608" on="0"/>
        <pt x="49" y="696" on="0"/>
        <pt x="49" y="788" on="1"/>
        <pt x="49" y="936" on="0"/>
        <pt x="291" y="1124" on="0"/>
        <pt x="530" y="1124" on="1"/>
        <pt x="765" y="1124" on="0"/>
        <pt x="1030" y="894" on="0"/>
        <pt x="1030" y="702" on="1"/>
        <pt x="1030" y="563" on="0"/>
        <pt x="886" y="305" on="0"/>
        <pt x="678" y="84" on="1"/>
        <pt x="401" y="-209" on="1"/>
        <pt x="1047" y="-209" on="1"/>
        <pt x="1047" y="-492" on="1"/>
        <pt x="150" y="-492" on="1"/>
        <pt x="113" y="-492" on="0"/>
        <pt x="63" y="-455" on="0"/>
        <pt x="63" y="-418" on="1"/>
        <pt x="63" y="-362" on="0"/>
        <pt x="135" y="-283" on="1"/>
        <pt x="428" y="35" on="1"/>
        <pt x="545" y="170" on="0"/>
        <pt x="658" y="369" on="0"/>
        <pt x="713" y="578" on="0"/>
      </contour>
    </TTGlyph>
    <TTGlyph name="uni0578" xMin="41" yMin="0" xMax="1313" yMax="1124">
      <contour>
        <pt x="858" y="0" on="1"/>
        <pt x="858" y="674" on="1"/>
        <pt x="858" y="807" on="0"/>
        <pt x="786" y="950" on="0"/>
        <pt x="694" y="950" on="1"/>
        <pt x="604" y="950" on="0"/>
        <pt x="516" y="779" on="0"/>
        <pt x="516" y="633" on="1"/>
        <pt x="516" y="242" on="1"/>
        <pt x="516" y="156" on="0"/>
        <pt x="596" y="109" on="0"/>
        <pt x="664" y="109" on="1"/>
        <pt x="670" y="109" on="1"/>
        <pt x="670" y="0" on="1"/>
        <pt x="41" y="0" on="1"/>
        <pt x="41" y="109" on="1"/>
        <pt x="45" y="109" on="1"/>
        <pt x="136" y="109" on="0"/>
        <pt x="205" y="176" on="0"/>
        <pt x="205" y="250" on="1"/>
        <pt x="205" y="856" on="1"/>
        <pt x="205" y="942" on="0"/>
        <pt x="125" y="989" on="0"/>
        <pt x="57" y="989" on="1"/>
        <pt x="51" y="989" on="1"/>
        <pt x="51" y="1098" on="1"/>
        <pt x="481" y="1098" on="1"/>
        <pt x="508" y="952" on="1"/>
        <pt x="518" y="952" on="1"/>
        <pt x="552" y="1017" on="0"/>
        <pt x="636" y="1091" on="0"/>
        <pt x="737" y="1124" on="0"/>
        <pt x="831" y="1124" on="1"/>
        <pt x="989" y="1124" on="0"/>
        <pt x="1169" y="936" on="0"/>
        <pt x="1169" y="729" on="1"/>
        <pt x="1169" y="254" on="1"/>
        <pt x="1169" y="198" on="0"/>
        <pt x="1193" y="137" on="0"/>
        <pt x="1247" y="109" on="0"/>
        <pt x="1307" y="109" on="1"/>
        <pt x="1313" y="109" on="1"/>
        <pt x="1313" y="0" on="1"/>
      </contour>
    </TTGlyph>
    <TTGlyph name="uni0579" xMin="-10" yMin="-492" xMax="911" yMax="1143">
      <contour>
        <pt x="586" y="1143" on="1"/>
        <pt x="625" y="1040" on="1"/>
        <pt x="467" y="981" on="1"/>
        <pt x="395" y="956" on="0"/>
        <pt x="395" y="893" on="1"/>
        <pt x="395" y="842" on="0"/>
        <pt x="442" y="786" on="1"/>
        <pt x="676" y="500" on="1"/>
        <pt x="719" y="446" on="0"/>
        <pt x="770" y="346" on="0"/>
        <pt x="770" y="293" on="1"/>
        <pt x="770" y="177" on="0"/>
        <pt x="666" y="84" on="1"/>
        <pt x="348" y="-209" on="1"/>
        <pt x="911" y="-209" on="1"/>
        <pt x="911" y="-492" on="1"/>
        <pt x="117" y="-492" on="1"/>
        <pt x="45" y="-492" on="0"/>
        <pt x="-10" y="-444" on="0"/>
        <pt x="-10" y="-397" on="1"/>
        <pt x="-10" y="-335" on="0"/>
        <pt x="51" y="-274" on="1"/>
        <pt x="395" y="35" on="1"/>
        <pt x="442" y="80" on="0"/>
        <pt x="506" y="158" on="0"/>
        <pt x="506" y="195" on="1"/>
        <pt x="506" y="252" on="0"/>
        <pt x="438" y="334" on="1"/>
        <pt x="135" y="707" on="1"/>
        <pt x="68" y="793" on="0"/>
        <pt x="68" y="856" on="1"/>
        <pt x="68" y="945" on="0"/>
        <pt x="195" y="993" on="1"/>
      </contour>
    </TTGlyph>
    <TTGlyph name="uni057A" xMin="53" yMin="-492" xMax="1968" yMax="1098">
      <contour>
        <pt x="1815" y="-256" on="1"/>
        <pt x="1815" y="-342" on="0"/>
        <pt x="1892" y="-389" on="0"/>
        <pt x="1960" y="-389" on="1"/>
        <pt x="1968" y="-389" on="1"/>
        <pt x="1968" y="-492" on="1"/>
        <pt x="1503" y="-492" on="1"/>
        <pt x="1503" y="-68" on="1"/>
        <pt x="1503" y="-35" on="0"/>
        <pt x="1511" y="145" on="1"/>
        <pt x="1501" y="145" on="1"/>
        <pt x="1451" y="54" on="0"/>
        <pt x="1315" y="-27" on="0"/>
        <pt x="1188" y="-27" on="1"/>
        <pt x="946" y="-27" on="0"/>
        <pt x="879" y="145" on="1"/>
        <pt x="860" y="145" on="1"/>
        <pt x="812" y="56" on="0"/>
        <pt x="668" y="-27" on="0"/>
        <pt x="535" y="-27" on="1"/>
        <pt x="377" y="-27" on="0"/>
        <pt x="197" y="162" on="0"/>
        <pt x="197" y="369" on="1"/>
        <pt x="197" y="844" on="1"/>
        <pt x="197" y="900" on="0"/>
        <pt x="172" y="962" on="0"/>
        <pt x="120" y="989" on="0"/>
        <pt x="61" y="989" on="1"/>
        <pt x="53" y="989" on="1"/>
        <pt x="53" y="1098" on="1"/>
        <pt x="508" y="1098" on="1"/>
        <pt x="508" y="424" on="1"/>
        <pt x="508" y="291" on="0"/>
        <pt x="580" y="147" on="0"/>
        <pt x="672" y="147" on="1"/>
        <pt x="755" y="147" on="0"/>
        <pt x="850" y="298" on="0"/>
        <pt x="850" y="440" on="1"/>
        <pt x="850" y="844" on="1"/>
        <pt x="850" y="901" on="0"/>
        <pt x="826" y="963" on="0"/>
        <pt x="773" y="989" on="0"/>
        <pt x="715" y="989" on="1"/>
        <pt x="707" y="989" on="1"/>
        <pt x="707" y="1098" on="1"/>
        <pt x="1161" y="1098" on="1"/>
        <pt x="1161" y="424" on="1"/>
        <pt x="1161" y="291" on="0"/>
        <pt x="1233" y="147" on="0"/>
        <pt x="1325" y="147" on="1"/>
        <pt x="1413" y="147" on="0"/>
        <pt x="1503" y="313" on="0"/>
        <pt x="1503" y="465" on="1"/>
        <pt x="1503" y="856" on="1"/>
        <pt x="1503" y="942" on="0"/>
        <pt x="1425" y="989" on="0"/>
        <pt x="1358" y="989" on="1"/>
        <pt x="1350" y="989" on="1"/>
        <pt x="1350" y="1098" on="1"/>
        <pt x="1815" y="1098" on="1"/>
      </contour>
    </TTGlyph>
    <TTGlyph name="uni057B" xMin="31" yMin="-492" xMax="1047" yMax="1124">
      <contour>
        <pt x="438" y="45" on="1"/>
        <pt x="220" y="180" on="0"/>
        <pt x="31" y="469" on="0"/>
        <pt x="31" y="662" on="1"/>
        <pt x="31" y="874" on="0"/>
        <pt x="285" y="1124" on="0"/>
        <pt x="530" y="1124" on="1"/>
        <pt x="765" y="1124" on="0"/>
        <pt x="1030" y="894" on="0"/>
        <pt x="1030" y="702" on="1"/>
        <pt x="1030" y="563" on="0"/>
        <pt x="886" y="305" on="0"/>
        <pt x="678" y="84" on="1"/>
        <pt x="401" y="-209" on="1"/>
        <pt x="1047" y="-209" on="1"/>
        <pt x="1047" y="-492" on="1"/>
        <pt x="150" y="-492" on="1"/>
        <pt x="113" y="-492" on="0"/>
        <pt x="63" y="-455" on="0"/>
        <pt x="63" y="-418" on="1"/>
        <pt x="63" y="-362" on="0"/>
        <pt x="135" y="-283" on="1"/>
        <pt x="428" y="35" on="1"/>
      </contour>
      <contour>
        <pt x="348" y="702" on="1"/>
        <pt x="348" y="534" on="0"/>
        <pt x="381" y="362" on="0"/>
        <pt x="460" y="224" on="0"/>
        <pt x="528" y="160" on="1"/>
        <pt x="612" y="274" on="0"/>
        <pt x="713" y="528" on="0"/>
        <pt x="713" y="702" on="1"/>
        <pt x="713" y="842" on="0"/>
        <pt x="614" y="999" on="0"/>
        <pt x="528" y="999" on="1"/>
        <pt x="444" y="999" on="0"/>
        <pt x="348" y="842" on="0"/>
      </contour>
    </TTGlyph>
    <TTGlyph name="uni057C" xMin="41" yMin="0" xMax="1286" yMax="1124">
      <contour>
        <pt x="741" y="0" on="1"/>
        <pt x="741" y="109" on="1"/>
        <pt x="800" y="196" on="0"/>
        <pt x="854" y="330" on="0"/>
        <pt x="887" y="498" on="0"/>
        <pt x="887" y="606" on="1"/>
        <pt x="887" y="778" on="0"/>
        <pt x="803" y="950" on="0"/>
        <pt x="709" y="950" on="1"/>
        <pt x="614" y="950" on="0"/>
        <pt x="516" y="787" on="0"/>
        <pt x="516" y="633" on="1"/>
        <pt x="516" y="242" on="1"/>
        <pt x="516" y="158" on="0"/>
        <pt x="582" y="109" on="0"/>
        <pt x="649" y="109" on="1"/>
        <pt x="649" y="0" on="1"/>
        <pt x="41" y="0" on="1"/>
        <pt x="41" y="109" on="1"/>
        <pt x="49" y="109" on="1"/>
        <pt x="139" y="109" on="0"/>
        <pt x="205" y="174" on="0"/>
        <pt x="205" y="250" on="1"/>
        <pt x="205" y="856" on="1"/>
        <pt x="205" y="942" on="0"/>
        <pt x="127" y="989" on="0"/>
        <pt x="59" y="989" on="1"/>
        <pt x="51" y="989" on="1"/>
        <pt x="51" y="1098" on="1"/>
        <pt x="481" y="1098" on="1"/>
        <pt x="508" y="952" on="1"/>
        <pt x="518" y="952" on="1"/>
        <pt x="555" y="1017" on="0"/>
        <pt x="641" y="1090" on="0"/>
        <pt x="747" y="1124" on="0"/>
        <pt x="846" y="1124" on="1"/>
        <pt x="1017" y="1124" on="0"/>
        <pt x="1204" y="864" on="0"/>
        <pt x="1204" y="637" on="1"/>
        <pt x="1204" y="514" on="0"/>
        <pt x="1092" y="250" on="0"/>
        <pt x="971" y="145" on="1"/>
        <pt x="1286" y="145" on="1"/>
        <pt x="1286" y="0" on="1"/>
      </contour>
    </TTGlyph>
    <TTGlyph name="uni057D" xMin="53" yMin="-20" xMax="1315" yMax="1098">
      <contour>
        <pt x="907" y="0" on="1"/>
        <pt x="862" y="145" on="1"/>
        <pt x="852" y="145" on="1"/>
        <pt x="801" y="57" on="0"/>
        <pt x="656" y="-20" on="0"/>
        <pt x="528" y="-20" on="1"/>
        <pt x="197" y="-20" on="0"/>
        <pt x="197" y="385" on="1"/>
        <pt x="197" y="844" on="1"/>
        <pt x="197" y="934" on="0"/>
        <pt x="131" y="989" on="0"/>
        <pt x="57" y="989" on="1"/>
        <pt x="53" y="989" on="1"/>
        <pt x="53" y="1098" on="1"/>
        <pt x="508" y="1098" on="1"/>
        <pt x="508" y="442" on="1"/>
        <pt x="508" y="311" on="0"/>
        <pt x="573" y="154" on="0"/>
        <pt x="664" y="154" on="1"/>
        <pt x="850" y="154" on="0"/>
        <pt x="850" y="465" on="1"/>
        <pt x="850" y="858" on="1"/>
        <pt x="850" y="924" on="0"/>
        <pt x="787" y="989" on="0"/>
        <pt x="702" y="989" on="1"/>
        <pt x="696" y="989" on="1"/>
        <pt x="696" y="1098" on="1"/>
        <pt x="1161" y="1098" on="1"/>
        <pt x="1161" y="238" on="1"/>
        <pt x="1161" y="190" on="0"/>
        <pt x="1186" y="134" on="0"/>
        <pt x="1236" y="109" on="0"/>
        <pt x="1298" y="109" on="1"/>
        <pt x="1315" y="109" on="1"/>
        <pt x="1315" y="0" on="1"/>
      </contour>
    </TTGlyph>
    <TTGlyph name="uni057E" xMin="45" yMin="-492" xMax="1460" yMax="1556">
      <contour>
        <pt x="842" y="-492" on="1"/>
        <pt x="842" y="-33" on="1"/>
        <pt x="842" y="22" on="0"/>
        <pt x="854" y="145" on="1"/>
        <pt x="844" y="145" on="1"/>
        <pt x="793" y="59" on="0"/>
        <pt x="648" y="-20" on="0"/>
        <pt x="520" y="-20" on="1"/>
        <pt x="188" y="-20" on="0"/>
        <pt x="188" y="385" on="1"/>
        <pt x="188" y="844" on="1"/>
        <pt x="188" y="928" on="0"/>
        <pt x="131" y="989" on="0"/>
        <pt x="53" y="989" on="1"/>
        <pt x="45" y="989" on="1"/>
        <pt x="45" y="1098" on="1"/>
        <pt x="500" y="1098" on="1"/>
        <pt x="500" y="442" on="1"/>
        <pt x="500" y="311" on="0"/>
        <pt x="565" y="154" on="0"/>
        <pt x="655" y="154" on="1"/>
        <pt x="842" y="154" on="0"/>
        <pt x="842" y="465" on="1"/>
        <pt x="842" y="1317" on="1"/>
        <pt x="842" y="1387" on="0"/>
        <pt x="778" y="1448" on="0"/>
        <pt x="696" y="1448" on="1"/>
        <pt x="688" y="1448" on="1"/>
        <pt x="688" y="1556" on="1"/>
        <pt x="1153" y="1556" on="1"/>
        <pt x="1153" y="-346" on="1"/>
        <pt x="1460" y="-346" on="1"/>
        <pt x="1460" y="-492" on="1"/>
      </contour>
    </TTGlyph>
    <TTGlyph name="uni057F" xMin="53" yMin="-20" xMax="1958" yMax="1124">
      <contour>
        <pt x="907" y="0" on="1"/>
        <pt x="862" y="145" on="1"/>
        <pt x="852" y="145" on="1"/>
        <pt x="801" y="57" on="0"/>
        <pt x="656" y="-20" on="0"/>
        <pt x="528" y="-20" on="1"/>
        <pt x="197" y="-20" on="0"/>
        <pt x="197" y="385" on="1"/>
        <pt x="197" y="844" on="1"/>
        <pt x="197" y="934" on="0"/>
        <pt x="133" y="989" on="0"/>
        <pt x="61" y="989" on="1"/>
        <pt x="53" y="989" on="1"/>
        <pt x="53" y="1098" on="1"/>
        <pt x="508" y="1098" on="1"/>
        <pt x="508" y="442" on="1"/>
        <pt x="508" y="311" on="0"/>
        <pt x="573" y="154" on="0"/>
        <pt x="664" y="154" on="1"/>
        <pt x="850" y="154" on="0"/>
        <pt x="850" y="465" on="1"/>
        <pt x="850" y="1098" on="1"/>
        <pt x="1126" y="1098" on="1"/>
        <pt x="1153" y="952" on="1"/>
        <pt x="1163" y="952" on="1"/>
        <pt x="1197" y="1017" on="0"/>
        <pt x="1284" y="1092" on="0"/>
        <pt x="1384" y="1124" on="0"/>
        <pt x="1477" y="1124" on="1"/>
        <pt x="1634" y="1124" on="0"/>
        <pt x="1815" y="936" on="0"/>
        <pt x="1815" y="729" on="1"/>
        <pt x="1815" y="254" on="1"/>
        <pt x="1815" y="198" on="0"/>
        <pt x="1838" y="137" on="0"/>
        <pt x="1889" y="109" on="0"/>
        <pt x="1948" y="109" on="1"/>
        <pt x="1958" y="109" on="1"/>
        <pt x="1958" y="0" on="1"/>
        <pt x="1503" y="0" on="1"/>
        <pt x="1503" y="674" on="1"/>
        <pt x="1503" y="807" on="0"/>
        <pt x="1432" y="950" on="0"/>
        <pt x="1339" y="950" on="1"/>
        <pt x="1250" y="950" on="0"/>
        <pt x="1161" y="779" on="0"/>
        <pt x="1161" y="633" on="1"/>
        <pt x="1161" y="0" on="1"/>
      </contour>
    </TTGlyph>
    <TTGlyph name="uni0580" xMin="27" yMin="-492" xMax="1305" yMax="1124">
      <contour>
        <pt x="197" y="856" on="1"/>
        <pt x="197" y="942" on="0"/>
        <pt x="119" y="989" on="0"/>
        <pt x="51" y="989" on="1"/>
        <pt x="27" y="989" on="1"/>
        <pt x="27" y="1098" on="1"/>
        <pt x="473" y="1098" on="1"/>
        <pt x="500" y="952" on="1"/>
        <pt x="510" y="952" on="1"/>
        <pt x="544" y="1017" on="0"/>
        <pt x="628" y="1091" on="0"/>
        <pt x="729" y="1124" on="0"/>
        <pt x="823" y="1124" on="1"/>
        <pt x="981" y="1124" on="0"/>
        <pt x="1161" y="936" on="0"/>
        <pt x="1161" y="729" on="1"/>
        <pt x="1161" y="254" on="1"/>
        <pt x="1161" y="198" on="0"/>
        <pt x="1186" y="135" on="0"/>
        <pt x="1237" y="109" on="0"/>
        <pt x="1296" y="109" on="1"/>
        <pt x="1305" y="109" on="1"/>
        <pt x="1305" y="0" on="1"/>
        <pt x="850" y="0" on="1"/>
        <pt x="850" y="674" on="1"/>
        <pt x="850" y="807" on="0"/>
        <pt x="778" y="950" on="0"/>
        <pt x="686" y="950" on="1"/>
        <pt x="598" y="950" on="0"/>
        <pt x="508" y="785" on="0"/>
        <pt x="508" y="633" on="1"/>
        <pt x="508" y="-250" on="1"/>
        <pt x="508" y="-336" on="0"/>
        <pt x="586" y="-383" on="0"/>
        <pt x="653" y="-383" on="1"/>
        <pt x="662" y="-383" on="1"/>
        <pt x="662" y="-492" on="1"/>
        <pt x="197" y="-492" on="1"/>
      </contour>
    </TTGlyph>
    <TTGlyph name="uni0581" xMin="94" yMin="-492" xMax="1122" yMax="1118">
      <contour>
        <pt x="600" y="965" on="1"/>
        <pt x="496" y="965" on="0"/>
        <pt x="410" y="770" on="0"/>
        <pt x="410" y="559" on="1"/>
        <pt x="410" y="354" on="0"/>
        <pt x="496" y="152" on="0"/>
        <pt x="600" y="152" on="1"/>
        <pt x="707" y="152" on="0"/>
        <pt x="811" y="351" on="0"/>
        <pt x="811" y="557" on="1"/>
        <pt x="811" y="770" on="0"/>
        <pt x="721" y="965" on="0"/>
      </contour>
      <contour>
        <pt x="811" y="35" on="1"/>
        <pt x="811" y="40" on="0"/>
        <pt x="812" y="54" on="0"/>
        <pt x="827" y="176" on="1"/>
        <pt x="813" y="176" on="1"/>
        <pt x="768" y="88" on="0"/>
        <pt x="625" y="0" on="0"/>
        <pt x="508" y="0" on="1"/>
        <pt x="309" y="0" on="0"/>
        <pt x="94" y="264" on="0"/>
        <pt x="94" y="561" on="1"/>
        <pt x="94" y="856" on="0"/>
        <pt x="311" y="1118" on="0"/>
        <pt x="512" y="1118" on="1"/>
        <pt x="633" y="1118" on="0"/>
        <pt x="780" y="1022" on="0"/>
        <pt x="827" y="938" on="1"/>
        <pt x="846" y="938" on="1"/>
        <pt x="887" y="1098" on="1"/>
        <pt x="1122" y="1098" on="1"/>
        <pt x="1122" y="88" on="1"/>
        <pt x="1122" y="-197" on="0"/>
        <pt x="863" y="-492" on="0"/>
        <pt x="612" y="-492" on="1"/>
        <pt x="475" y="-492" on="0"/>
        <pt x="272" y="-433" on="0"/>
        <pt x="162" y="-323" on="0"/>
        <pt x="162" y="-256" on="1"/>
        <pt x="162" y="-82" on="0"/>
        <pt x="426" y="-82" on="1"/>
        <pt x="426" y="-232" on="0"/>
        <pt x="522" y="-367" on="0"/>
        <pt x="608" y="-367" on="1"/>
        <pt x="714" y="-367" on="0"/>
        <pt x="811" y="-179" on="0"/>
        <pt x="811" y="8" on="1"/>
      </contour>
    </TTGlyph>
    <TTGlyph name="uni0582" xMin="43" yMin="0" xMax="795" yMax="1098">
      <contour>
        <pt x="508" y="145" on="1"/>
        <pt x="795" y="145" on="1"/>
        <pt x="795" y="0" on="1"/>
        <pt x="197" y="0" on="1"/>
        <pt x="197" y="856" on="1"/>
        <pt x="197" y="942" on="0"/>
        <pt x="119" y="989" on="0"/>
        <pt x="51" y="989" on="1"/>
        <pt x="43" y="989" on="1"/>
        <pt x="43" y="1098" on="1"/>
        <pt x="508" y="1098" on="1"/>
      </contour>
    </TTGlyph>
    <TTGlyph name="uni0583" xMin="53" yMin="-492" xMax="1958" yMax="1556">
      <contour>
        <pt x="850" y="-43" on="1"/>
        <pt x="850" y="17" on="0"/>
        <pt x="866" y="145" on="1"/>
        <pt x="852" y="145" on="1"/>
        <pt x="801" y="57" on="0"/>
        <pt x="656" y="-20" on="0"/>
        <pt x="528" y="-20" on="1"/>
        <pt x="197" y="-20" on="0"/>
        <pt x="197" y="385" on="1"/>
        <pt x="197" y="844" on="1"/>
        <pt x="197" y="934" on="0"/>
        <pt x="133" y="989" on="0"/>
        <pt x="61" y="989" on="1"/>
        <pt x="53" y="989" on="1"/>
        <pt x="53" y="1098" on="1"/>
        <pt x="508" y="1098" on="1"/>
        <pt x="508" y="442" on="1"/>
        <pt x="508" y="311" on="0"/>
        <pt x="573" y="154" on="0"/>
        <pt x="664" y="154" on="1"/>
        <pt x="850" y="154" on="0"/>
        <pt x="850" y="465" on="1"/>
        <pt x="850" y="1323" on="1"/>
        <pt x="850" y="1384" on="0"/>
        <pt x="776" y="1448" on="0"/>
        <pt x="705" y="1448" on="1"/>
        <pt x="680" y="1448" on="1"/>
        <pt x="680" y="1556" on="1"/>
        <pt x="1161" y="1556" on="1"/>
        <pt x="1161" y="1219" on="1"/>
        <pt x="1161" y="1180" on="0"/>
        <pt x="1157" y="1092" on="0"/>
        <pt x="1145" y="952" on="1"/>
        <pt x="1163" y="952" on="1"/>
        <pt x="1197" y="1017" on="0"/>
        <pt x="1284" y="1092" on="0"/>
        <pt x="1384" y="1124" on="0"/>
        <pt x="1477" y="1124" on="1"/>
        <pt x="1634" y="1124" on="0"/>
        <pt x="1815" y="936" on="0"/>
        <pt x="1815" y="729" on="1"/>
        <pt x="1815" y="254" on="1"/>
        <pt x="1815" y="198" on="0"/>
        <pt x="1838" y="137" on="0"/>
        <pt x="1889" y="109" on="0"/>
        <pt x="1948" y="109" on="1"/>
        <pt x="1958" y="109" on="1"/>
        <pt x="1958" y="0" on="1"/>
        <pt x="1503" y="0" on="1"/>
        <pt x="1503" y="674" on="1"/>
        <pt x="1503" y="807" on="0"/>
        <pt x="1432" y="950" on="0"/>
        <pt x="1339" y="950" on="1"/>
        <pt x="1250" y="950" on="0"/>
        <pt x="1161" y="779" on="0"/>
        <pt x="1161" y="633" on="1"/>
        <pt x="1161" y="-250" on="1"/>
        <pt x="1161" y="-336" on="0"/>
        <pt x="1239" y="-383" on="0"/>
        <pt x="1307" y="-383" on="1"/>
        <pt x="1356" y="-383" on="1"/>
        <pt x="1356" y="-492" on="1"/>
        <pt x="850" y="-492" on="1"/>
      </contour>
    </TTGlyph>
    <TTGlyph name="uni0584" xMin="33" yMin="-492" xMax="1225" yMax="1118">
      <contour>
        <pt x="33" y="-145" on="1"/>
        <pt x="197" y="-145" on="1"/>
        <pt x="197" y="846" on="1"/>
        <pt x="197" y="920" on="0"/>
        <pt x="137" y="989" on="0"/>
        <pt x="59" y="989" on="1"/>
        <pt x="45" y="989" on="1"/>
        <pt x="45" y="1098" on="1"/>
        <pt x="446" y="1098" on="1"/>
        <pt x="483" y="938" on="1"/>
        <pt x="492" y="938" on="1"/>
        <pt x="537" y="1018" on="0"/>
        <pt x="686" y="1118" on="0"/>
        <pt x="805" y="1118" on="1"/>
        <pt x="1010" y="1118" on="0"/>
        <pt x="1225" y="844" on="0"/>
        <pt x="1225" y="545" on="1"/>
        <pt x="1225" y="248" on="0"/>
        <pt x="1014" y="-25" on="0"/>
        <pt x="813" y="-25" on="1"/>
        <pt x="696" y="-25" on="0"/>
        <pt x="551" y="63" on="0"/>
        <pt x="506" y="139" on="1"/>
        <pt x="492" y="139" on="1"/>
        <pt x="500" y="47" on="1"/>
        <pt x="508" y="-31" on="0"/>
        <pt x="508" y="-109" on="1"/>
        <pt x="508" y="-145" on="1"/>
        <pt x="1163" y="-145" on="1"/>
        <pt x="1163" y="-291" on="1"/>
        <pt x="508" y="-291" on="1"/>
        <pt x="508" y="-492" on="1"/>
        <pt x="197" y="-492" on="1"/>
        <pt x="197" y="-291" on="1"/>
        <pt x="33" y="-291" on="1"/>
      </contour>
      <contour>
        <pt x="717" y="127" on="1"/>
        <pt x="821" y="127" on="0"/>
        <pt x="909" y="332" on="0"/>
        <pt x="909" y="543" on="1"/>
        <pt x="909" y="748" on="0"/>
        <pt x="821" y="965" on="0"/>
        <pt x="719" y="965" on="1"/>
        <pt x="596" y="965" on="0"/>
        <pt x="508" y="750" on="0"/>
        <pt x="508" y="545" on="1"/>
        <pt x="508" y="334" on="0"/>
        <pt x="596" y="127" on="0"/>
      </contour>
    </TTGlyph>
    <TTGlyph name="uni0585" xMin="96" yMin="-20" xMax="1159" yMax="1124">
      <contour>
        <pt x="1159" y="553" on="1"/>
        <pt x="1159" y="-20" on="0"/>
        <pt x="625" y="-20" on="1"/>
        <pt x="379" y="-20" on="0"/>
        <pt x="96" y="264" on="0"/>
        <pt x="96" y="553" on="1"/>
        <pt x="96" y="844" on="0"/>
        <pt x="365" y="1124" on="0"/>
        <pt x="631" y="1124" on="1"/>
        <pt x="877" y="1124" on="0"/>
        <pt x="1159" y="842" on="0"/>
      </contour>
      <contour>
        <pt x="414" y="553" on="1"/>
        <pt x="414" y="334" on="0"/>
        <pt x="510" y="109" on="0"/>
        <pt x="629" y="109" on="1"/>
        <pt x="748" y="109" on="0"/>
        <pt x="842" y="334" on="0"/>
        <pt x="842" y="553" on="1"/>
        <pt x="842" y="774" on="0"/>
        <pt x="745" y="993" on="0"/>
        <pt x="627" y="993" on="1"/>
        <pt x="508" y="993" on="0"/>
        <pt x="414" y="774" on="0"/>
      </contour>
    </TTGlyph>
    <TTGlyph name="uni0586" xMin="61" yMin="-492" xMax="1143" yMax="1567">
      <contour>
        <pt x="743" y="887" on="1"/>
        <pt x="960" y="795" on="0"/>
        <pt x="1143" y="575" on="0"/>
        <pt x="1143" y="410" on="1"/>
        <pt x="1143" y="244" on="0"/>
        <pt x="930" y="23" on="0"/>
        <pt x="743" y="-8" on="1"/>
        <pt x="743" y="-250" on="1"/>
        <pt x="743" y="-336" on="0"/>
        <pt x="821" y="-383" on="0"/>
        <pt x="889" y="-383" on="1"/>
        <pt x="938" y="-383" on="1"/>
        <pt x="938" y="-492" on="1"/>
        <pt x="473" y="-492" on="1"/>
        <pt x="473" y="-14" on="1"/>
        <pt x="286" y="-1" on="0"/>
        <pt x="61" y="130" on="0"/>
        <pt x="61" y="231" on="1"/>
        <pt x="61" y="308" on="0"/>
        <pt x="169" y="397" on="0"/>
        <pt x="260" y="397" on="1"/>
        <pt x="260" y="283" on="0"/>
        <pt x="356" y="133" on="0"/>
        <pt x="473" y="111" on="1"/>
        <pt x="473" y="690" on="1"/>
        <pt x="275" y="770" on="0"/>
        <pt x="82" y="994" on="0"/>
        <pt x="82" y="1169" on="1"/>
        <pt x="82" y="1285" on="0"/>
        <pt x="201" y="1465" on="0"/>
        <pt x="436" y="1567" on="0"/>
        <pt x="588" y="1567" on="1"/>
        <pt x="681" y="1567" on="0"/>
        <pt x="743" y="1556" on="1"/>
      </contour>
      <contour>
        <pt x="899" y="348" on="1"/>
        <pt x="899" y="414" on="0"/>
        <pt x="836" y="520" on="0"/>
        <pt x="743" y="567" on="1"/>
        <pt x="743" y="125" on="1"/>
        <pt x="823" y="147" on="0"/>
        <pt x="899" y="272" on="0"/>
      </contour>
      <contour>
        <pt x="326" y="1239" on="1"/>
        <pt x="326" y="1174" on="0"/>
        <pt x="383" y="1061" on="0"/>
        <pt x="473" y="1010" on="1"/>
        <pt x="473" y="1438" on="1"/>
        <pt x="407" y="1427" on="0"/>
        <pt x="326" y="1314" on="0"/>
      </contour>
    </TTGlyph>
    <TTGlyph name="uni0587" xMin="53" yMin="-20" xMax="1448" yMax="1556">
      <contour>
        <pt x="907" y="0" on="1"/>
        <pt x="862" y="145" on="1"/>
        <pt x="852" y="145" on="1"/>
        <pt x="801" y="57" on="0"/>
        <pt x="656" y="-20" on="0"/>
        <pt x="528" y="-20" on="1"/>
        <pt x="197" y="-20" on="0"/>
        <pt x="197" y="385" on="1"/>
        <pt x="197" y="1303" on="1"/>
        <pt x="197" y="1383" on="0"/>
        <pt x="142" y="1448" on="0"/>
        <pt x="61" y="1448" on="1"/>
        <pt x="53" y="1448" on="1"/>
        <pt x="53" y="1556" on="1"/>
        <pt x="508" y="1556" on="1"/>
        <pt x="508" y="442" on="1"/>
        <pt x="508" y="311" on="0"/>
        <pt x="573" y="154" on="0"/>
        <pt x="664" y="154" on="1"/>
        <pt x="850" y="154" on="0"/>
        <pt x="850" y="465" on="1"/>
        <pt x="850" y="858" on="1"/>
        <pt x="850" y="928" on="0"/>
        <pt x="786" y="989" on="0"/>
        <pt x="705" y="989" on="1"/>
        <pt x="696" y="989" on="1"/>
        <pt x="696" y="1098" on="1"/>
        <pt x="1161" y="1098" on="1"/>
        <pt x="1161" y="145" on="1"/>
        <pt x="1448" y="145" on="1"/>
        <pt x="1448" y="0" on="1"/>
      </contour>
    </TTGlyph>
    <TTGlyph name="uni0589" xMin="143" yMin="-16" xMax="479" yMax="1116">
      <contour>
        <pt x="143" y="147" on="1"/>
        <pt x="143" y="242" on="0"/>
        <pt x="240" y="311" on="0"/>
        <pt x="311" y="311" on="1"/>
        <pt x="379" y="311" on="0"/>
        <pt x="479" y="242" on="0"/>
        <pt x="479" y="147" on="1"/>
        <pt x="479" y="55" on="0"/>
        <pt x="379" y="-16" on="0"/>
        <pt x="311" y="-16" on="1"/>
        <pt x="240" y="-16" on="0"/>
        <pt x="143" y="55" on="0"/>
      </contour>
      <contour>
        <pt x="143" y="952" on="1"/>
        <pt x="143" y="1047" on="0"/>
        <pt x="240" y="1116" on="0"/>
        <pt x="311" y="1116" on="1"/>
        <pt x="379" y="1116" on="0"/>
        <pt x="479" y="1047" on="0"/>
        <pt x="479" y="952" on="1"/>
        <pt x="479" y="860" on="0"/>
        <pt x="379" y="788" on="0"/>
        <pt x="311" y="788" on="1"/>
        <pt x="240" y="788" on="0"/>
        <pt x="143" y="860" on="0"/>
      </contour>
    </TTGlyph>
    <TTGlyph name="uni058A" xMin="61" yMin="373" xMax="801" yMax="713">
      <contour>
        <pt x="295" y="713" on="1"/>
        <pt x="295" y="628" on="0"/>
        <pt x="365" y="557" on="0"/>
        <pt x="434" y="557" on="1"/>
        <pt x="595" y="557" on="0"/>
        <pt x="772" y="600" on="1"/>
        <pt x="801" y="500" on="1"/>
        <pt x="690" y="442" on="0"/>
        <pt x="449" y="373" on="0"/>
        <pt x="346" y="373" on="1"/>
        <pt x="201" y="373" on="0"/>
        <pt x="61" y="535" on="0"/>
        <pt x="61" y="713" on="1"/>
      </contour>
    </TTGlyph>
    <TTGlyph name="uni058F" xMin="-2" yMin="0" xMax="1028" yMax="1483">
      <contour>
        <pt x="524" y="834" on="1"/>
        <pt x="524" y="1133" on="1"/>
        <pt x="524" y="1250" on="0"/>
        <pt x="458" y="1358" on="0"/>
        <pt x="399" y="1358" on="1"/>
        <pt x="359" y="1358" on="0"/>
        <pt x="304" y="1321" on="0"/>
        <pt x="269" y="1242" on="0"/>
        <pt x="254" y="1118" on="0"/>
        <pt x="254" y="1030" on="1"/>
        <pt x="195" y="1030" on="0"/>
        <pt x="101" y="1044" on="0"/>
        <pt x="34" y="1082" on="0"/>
        <pt x="-2" y="1151" on="0"/>
        <pt x="-2" y="1206" on="1"/>
        <pt x="-2" y="1248" on="0"/>
        <pt x="41" y="1345" on="0"/>
        <pt x="140" y="1428" on="0"/>
        <pt x="300" y="1483" on="0"/>
        <pt x="418" y="1483" on="1"/>
        <pt x="516" y="1483" on="0"/>
        <pt x="669" y="1436" on="0"/>
        <pt x="774" y="1348" on="0"/>
        <pt x="829" y="1222" on="0"/>
        <pt x="829" y="1143" on="1"/>
        <pt x="829" y="834" on="1"/>
        <pt x="1028" y="834" on="1"/>
        <pt x="1028" y="707" on="1"/>
        <pt x="829" y="707" on="1"/>
        <pt x="829" y="580" on="1"/>
        <pt x="1028" y="580" on="1"/>
        <pt x="1028" y="453" on="1"/>
        <pt x="829" y="453" on="1"/>
        <pt x="829" y="242" on="1"/>
        <pt x="829" y="210" on="0"/>
        <pt x="838" y="160" on="0"/>
        <pt x="861" y="126" on="0"/>
        <pt x="902" y="109" on="0"/>
        <pt x="934" y="109" on="1"/>
        <pt x="1018" y="109" on="1"/>
        <pt x="1018" y="0" on="1"/>
        <pt x="295" y="0" on="1"/>
        <pt x="295" y="109" on="1"/>
        <pt x="422" y="109" on="1"/>
        <pt x="448" y="109" on="0"/>
        <pt x="487" y="122" on="0"/>
        <pt x="512" y="152" on="0"/>
        <pt x="524" y="203" on="0"/>
        <pt x="524" y="242" on="1"/>
        <pt x="524" y="453" on="1"/>
        <pt x="213" y="453" on="1"/>
        <pt x="213" y="580" on="1"/>
        <pt x="524" y="580" on="1"/>
        <pt x="524" y="707" on="1"/>
        <pt x="213" y="707" on="1"/>
        <pt x="213" y="834" on="1"/>
      </contour>
    </TTGlyph>
    <TTGlyph name="uniFB13" xMin="53" yMin="-20" xMax="2587" yMax="1575">
      <contour>
        <pt x="850" y="1174" on="1"/>
        <pt x="850" y="1575" on="0"/>
        <pt x="1290" y="1575" on="1"/>
        <pt x="1651" y="1575" on="0"/>
        <pt x="1651" y="1425" on="1"/>
        <pt x="1651" y="1292" on="0"/>
        <pt x="1399" y="1292" on="1"/>
        <pt x="1399" y="1359" on="0"/>
        <pt x="1331" y="1458" on="0"/>
        <pt x="1276" y="1458" on="1"/>
        <pt x="1214" y="1458" on="0"/>
        <pt x="1161" y="1346" on="0"/>
        <pt x="1161" y="1210" on="1"/>
        <pt x="1161" y="1098" on="1"/>
        <pt x="1780" y="1098" on="1"/>
        <pt x="1780" y="442" on="1"/>
        <pt x="1780" y="311" on="0"/>
        <pt x="1845" y="154" on="0"/>
        <pt x="1935" y="154" on="1"/>
        <pt x="2122" y="154" on="0"/>
        <pt x="2122" y="465" on="1"/>
        <pt x="2122" y="858" on="1"/>
        <pt x="2122" y="907" on="0"/>
        <pt x="2093" y="963" on="0"/>
        <pt x="2036" y="989" on="0"/>
        <pt x="1978" y="989" on="1"/>
        <pt x="1968" y="989" on="1"/>
        <pt x="1968" y="1098" on="1"/>
        <pt x="2433" y="1098" on="1"/>
        <pt x="2433" y="238" on="1"/>
        <pt x="2433" y="190" on="0"/>
        <pt x="2459" y="134" on="0"/>
        <pt x="2507" y="109" on="0"/>
        <pt x="2570" y="109" on="1"/>
        <pt x="2587" y="109" on="1"/>
        <pt x="2587" y="0" on="1"/>
        <pt x="2179" y="0" on="1"/>
        <pt x="2134" y="145" on="1"/>
        <pt x="2124" y="145" on="1"/>
        <pt x="2073" y="59" on="0"/>
        <pt x="1928" y="-20" on="0"/>
        <pt x="1800" y="-20" on="1"/>
        <pt x="1468" y="-20" on="0"/>
        <pt x="1468" y="385" on="1"/>
        <pt x="1468" y="989" on="1"/>
        <pt x="1161" y="989" on="1"/>
        <pt x="1161" y="238" on="1"/>
        <pt x="1161" y="190" on="0"/>
        <pt x="1186" y="134" on="0"/>
        <pt x="1236" y="109" on="0"/>
        <pt x="1298" y="109" on="1"/>
        <pt x="1315" y="109" on="1"/>
        <pt x="1315" y="0" on="1"/>
        <pt x="907" y="0" on="1"/>
        <pt x="862" y="145" on="1"/>
        <pt x="852" y="145" on="1"/>
        <pt x="801" y="57" on="0"/>
        <pt x="656" y="-20" on="0"/>
        <pt x="528" y="-20" on="1"/>
        <pt x="197" y="-20" on="0"/>
        <pt x="197" y="385" on="1"/>
        <pt x="197" y="844" on="1"/>
        <pt x="197" y="924" on="0"/>
        <pt x="142" y="989" on="0"/>
        <pt x="61" y="989" on="1"/>
        <pt x="53" y="989" on="1"/>
        <pt x="53" y="1098" on="1"/>
        <pt x="508" y="1098" on="1"/>
        <pt x="508" y="442" on="1"/>
        <pt x="508" y="311" on="0"/>
        <pt x="573" y="154" on="0"/>
        <pt x="664" y="154" on="1"/>
        <pt x="850" y="154" on="0"/>
        <pt x="850" y="465" on="1"/>
        <pt x="850" y="989" on="1"/>
        <pt x="691" y="989" on="0"/>
        <pt x="526" y="1097" on="0"/>
        <pt x="526" y="1212" on="1"/>
        <pt x="526" y="1278" on="0"/>
        <pt x="638" y="1374" on="0"/>
        <pt x="727" y="1374" on="1"/>
        <pt x="727" y="1238" on="0"/>
        <pt x="744" y="1136" on="0"/>
        <pt x="787" y="1098" on="0"/>
        <pt x="850" y="1098" on="1"/>
      </contour>
    </TTGlyph>
    <TTGlyph name="uniFB14" xMin="53" yMin="-20" xMax="2587" yMax="1575">
      <contour>
        <pt x="1780" y="442" on="1"/>
        <pt x="1780" y="311" on="0"/>
        <pt x="1845" y="154" on="0"/>
        <pt x="1935" y="154" on="1"/>
        <pt x="2122" y="154" on="0"/>
        <pt x="2122" y="465" on="1"/>
        <pt x="2122" y="741" on="1"/>
        <pt x="2433" y="741" on="1"/>
        <pt x="2433" y="238" on="1"/>
        <pt x="2433" y="190" on="0"/>
        <pt x="2459" y="134" on="0"/>
        <pt x="2507" y="109" on="0"/>
        <pt x="2570" y="109" on="1"/>
        <pt x="2587" y="109" on="1"/>
        <pt x="2587" y="0" on="1"/>
        <pt x="2179" y="0" on="1"/>
        <pt x="2134" y="145" on="1"/>
        <pt x="2124" y="145" on="1"/>
        <pt x="2073" y="59" on="0"/>
        <pt x="1928" y="-20" on="0"/>
        <pt x="1800" y="-20" on="1"/>
        <pt x="1468" y="-20" on="0"/>
        <pt x="1468" y="385" on="1"/>
        <pt x="1468" y="1206" on="1"/>
        <pt x="1468" y="1346" on="0"/>
        <pt x="1405" y="1458" on="0"/>
        <pt x="1335" y="1458" on="1"/>
        <pt x="1257" y="1458" on="0"/>
        <pt x="1161" y="1331" on="0"/>
        <pt x="1161" y="1196" on="1"/>
        <pt x="1161" y="238" on="1"/>
        <pt x="1161" y="190" on="0"/>
        <pt x="1186" y="134" on="0"/>
        <pt x="1236" y="109" on="0"/>
        <pt x="1298" y="109" on="1"/>
        <pt x="1315" y="109" on="1"/>
        <pt x="1315" y="0" on="1"/>
        <pt x="907" y="0" on="1"/>
        <pt x="862" y="145" on="1"/>
        <pt x="852" y="145" on="1"/>
        <pt x="801" y="57" on="0"/>
        <pt x="656" y="-20" on="0"/>
        <pt x="528" y="-20" on="1"/>
        <pt x="197" y="-20" on="0"/>
        <pt x="197" y="385" on="1"/>
        <pt x="197" y="844" on="1"/>
        <pt x="197" y="924" on="0"/>
        <pt x="142" y="989" on="0"/>
        <pt x="61" y="989" on="1"/>
        <pt x="53" y="989" on="1"/>
        <pt x="53" y="1098" on="1"/>
        <pt x="508" y="1098" on="1"/>
        <pt x="508" y="442" on="1"/>
        <pt x="508" y="311" on="0"/>
        <pt x="573" y="154" on="0"/>
        <pt x="664" y="154" on="1"/>
        <pt x="850" y="154" on="0"/>
        <pt x="850" y="465" on="1"/>
        <pt x="850" y="1110" on="1"/>
        <pt x="850" y="1352" on="0"/>
        <pt x="1102" y="1575" on="0"/>
        <pt x="1368" y="1575" on="1"/>
        <pt x="1436" y="1575" on="0"/>
        <pt x="1530" y="1556" on="1"/>
        <pt x="1780" y="1556" on="1"/>
        <pt x="1780" y="1098" on="1"/>
        <pt x="2433" y="1098" on="1"/>
        <pt x="2433" y="952" on="1"/>
        <pt x="1780" y="952" on="1"/>
      </contour>
    </TTGlyph>
    <TTGlyph name="uniFB15" xMin="53" yMin="-492" xMax="2576" yMax="1575">
      <contour>
        <pt x="1780" y="1219" on="1"/>
        <pt x="1780" y="1125" on="0"/>
        <pt x="1772" y="1049" on="1"/>
        <pt x="1763" y="958" on="1"/>
        <pt x="1782" y="958" on="1"/>
        <pt x="1814" y="1020" on="0"/>
        <pt x="1896" y="1091" on="0"/>
        <pt x="1991" y="1124" on="0"/>
        <pt x="2095" y="1124" on="1"/>
        <pt x="2253" y="1124" on="0"/>
        <pt x="2433" y="936" on="0"/>
        <pt x="2433" y="729" on="1"/>
        <pt x="2433" y="254" on="1"/>
        <pt x="2433" y="197" on="0"/>
        <pt x="2457" y="135" on="0"/>
        <pt x="2510" y="109" on="0"/>
        <pt x="2568" y="109" on="1"/>
        <pt x="2576" y="109" on="1"/>
        <pt x="2576" y="0" on="1"/>
        <pt x="2122" y="0" on="1"/>
        <pt x="2122" y="674" on="1"/>
        <pt x="2122" y="807" on="0"/>
        <pt x="2050" y="950" on="0"/>
        <pt x="1958" y="950" on="1"/>
        <pt x="1870" y="950" on="0"/>
        <pt x="1780" y="785" on="0"/>
        <pt x="1780" y="633" on="1"/>
        <pt x="1780" y="-250" on="1"/>
        <pt x="1780" y="-336" on="0"/>
        <pt x="1858" y="-383" on="0"/>
        <pt x="1925" y="-383" on="1"/>
        <pt x="1974" y="-383" on="1"/>
        <pt x="1974" y="-492" on="1"/>
        <pt x="1468" y="-492" on="1"/>
        <pt x="1468" y="1206" on="1"/>
        <pt x="1468" y="1346" on="0"/>
        <pt x="1405" y="1458" on="0"/>
        <pt x="1335" y="1458" on="1"/>
        <pt x="1257" y="1458" on="0"/>
        <pt x="1161" y="1331" on="0"/>
        <pt x="1161" y="1196" on="1"/>
        <pt x="1161" y="238" on="1"/>
        <pt x="1161" y="190" on="0"/>
        <pt x="1186" y="134" on="0"/>
        <pt x="1236" y="109" on="0"/>
        <pt x="1298" y="109" on="1"/>
        <pt x="1315" y="109" on="1"/>
        <pt x="1315" y="0" on="1"/>
        <pt x="907" y="0" on="1"/>
        <pt x="862" y="145" on="1"/>
        <pt x="852" y="145" on="1"/>
        <pt x="801" y="57" on="0"/>
        <pt x="656" y="-20" on="0"/>
        <pt x="528" y="-20" on="1"/>
        <pt x="197" y="-20" on="0"/>
        <pt x="197" y="385" on="1"/>
        <pt x="197" y="844" on="1"/>
        <pt x="197" y="924" on="0"/>
        <pt x="142" y="989" on="0"/>
        <pt x="61" y="989" on="1"/>
        <pt x="53" y="989" on="1"/>
        <pt x="53" y="1098" on="1"/>
        <pt x="508" y="1098" on="1"/>
        <pt x="508" y="442" on="1"/>
        <pt x="508" y="311" on="0"/>
        <pt x="573" y="154" on="0"/>
        <pt x="664" y="154" on="1"/>
        <pt x="850" y="154" on="0"/>
        <pt x="850" y="465" on="1"/>
        <pt x="850" y="1110" on="1"/>
        <pt x="850" y="1352" on="0"/>
        <pt x="1102" y="1575" on="0"/>
        <pt x="1368" y="1575" on="1"/>
        <pt x="1436" y="1575" on="0"/>
        <pt x="1530" y="1556" on="1"/>
        <pt x="1780" y="1556" on="1"/>
      </contour>
    </TTGlyph>
    <TTGlyph name="uniFB16" xMin="53" yMin="-492" xMax="2587" yMax="1556">
      <contour>
        <pt x="1161" y="1098" on="1"/>
        <pt x="1780" y="1098" on="1"/>
        <pt x="1780" y="442" on="1"/>
        <pt x="1780" y="311" on="0"/>
        <pt x="1845" y="154" on="0"/>
        <pt x="1935" y="154" on="1"/>
        <pt x="2122" y="154" on="0"/>
        <pt x="2122" y="465" on="1"/>
        <pt x="2122" y="858" on="1"/>
        <pt x="2122" y="907" on="0"/>
        <pt x="2093" y="963" on="0"/>
        <pt x="2036" y="989" on="0"/>
        <pt x="1978" y="989" on="1"/>
        <pt x="1968" y="989" on="1"/>
        <pt x="1968" y="1098" on="1"/>
        <pt x="2433" y="1098" on="1"/>
        <pt x="2433" y="238" on="1"/>
        <pt x="2433" y="190" on="0"/>
        <pt x="2459" y="134" on="0"/>
        <pt x="2507" y="109" on="0"/>
        <pt x="2570" y="109" on="1"/>
        <pt x="2587" y="109" on="1"/>
        <pt x="2587" y="0" on="1"/>
        <pt x="2179" y="0" on="1"/>
        <pt x="2134" y="145" on="1"/>
        <pt x="2124" y="145" on="1"/>
        <pt x="2073" y="59" on="0"/>
        <pt x="1928" y="-20" on="0"/>
        <pt x="1800" y="-20" on="1"/>
        <pt x="1468" y="-20" on="0"/>
        <pt x="1468" y="385" on="1"/>
        <pt x="1468" y="989" on="1"/>
        <pt x="1161" y="989" on="1"/>
        <pt x="1161" y="-346" on="1"/>
        <pt x="1468" y="-346" on="1"/>
        <pt x="1468" y="-492" on="1"/>
        <pt x="850" y="-492" on="1"/>
        <pt x="850" y="-33" on="1"/>
        <pt x="850" y="22" on="0"/>
        <pt x="862" y="145" on="1"/>
        <pt x="852" y="145" on="1"/>
        <pt x="801" y="57" on="0"/>
        <pt x="656" y="-20" on="0"/>
        <pt x="528" y="-20" on="1"/>
        <pt x="197" y="-20" on="0"/>
        <pt x="197" y="385" on="1"/>
        <pt x="197" y="844" on="1"/>
        <pt x="197" y="924" on="0"/>
        <pt x="142" y="989" on="0"/>
        <pt x="61" y="989" on="1"/>
        <pt x="53" y="989" on="1"/>
        <pt x="53" y="1098" on="1"/>
        <pt x="508" y="1098" on="1"/>
        <pt x="508" y="442" on="1"/>
        <pt x="508" y="311" on="0"/>
        <pt x="573" y="154" on="0"/>
        <pt x="664" y="154" on="1"/>
        <pt x="850" y="154" on="0"/>
        <pt x="850" y="465" on="1"/>
        <pt x="850" y="989" on="1"/>
        <pt x="693" y="989" on="0"/>
        <pt x="526" y="1083" on="0"/>
        <pt x="526" y="1184" on="1"/>
        <pt x="526" y="1237" on="0"/>
        <pt x="629" y="1325" on="0"/>
        <pt x="727" y="1325" on="1"/>
        <pt x="727" y="1215" on="0"/>
        <pt x="743" y="1130" on="0"/>
        <pt x="787" y="1098" on="0"/>
        <pt x="850" y="1098" on="1"/>
        <pt x="850" y="1317" on="1"/>
        <pt x="850" y="1393" on="0"/>
        <pt x="797" y="1448" on="0"/>
        <pt x="717" y="1448" on="1"/>
        <pt x="717" y="1556" on="1"/>
        <pt x="1161" y="1556" on="1"/>
      </contour>
    </TTGlyph>
    <TTGlyph name="uniFB17" xMin="53" yMin="-492" xMax="3240" yMax="1575">
      <contour>
        <pt x="2433" y="442" on="1"/>
        <pt x="2433" y="311" on="0"/>
        <pt x="2499" y="154" on="0"/>
        <pt x="2589" y="154" on="1"/>
        <pt x="2775" y="154" on="0"/>
        <pt x="2775" y="465" on="1"/>
        <pt x="2775" y="858" on="1"/>
        <pt x="2775" y="929" on="0"/>
        <pt x="2712" y="989" on="0"/>
        <pt x="2630" y="989" on="1"/>
        <pt x="2621" y="989" on="1"/>
        <pt x="2621" y="1098" on="1"/>
        <pt x="3086" y="1098" on="1"/>
        <pt x="3086" y="238" on="1"/>
        <pt x="3086" y="190" on="0"/>
        <pt x="3111" y="134" on="0"/>
        <pt x="3161" y="109" on="0"/>
        <pt x="3224" y="109" on="1"/>
        <pt x="3240" y="109" on="1"/>
        <pt x="3240" y="0" on="1"/>
        <pt x="2832" y="0" on="1"/>
        <pt x="2787" y="145" on="1"/>
        <pt x="2777" y="145" on="1"/>
        <pt x="2726" y="57" on="0"/>
        <pt x="2581" y="-20" on="0"/>
        <pt x="2454" y="-20" on="1"/>
        <pt x="2122" y="-20" on="0"/>
        <pt x="2122" y="385" on="1"/>
        <pt x="2122" y="674" on="1"/>
        <pt x="2122" y="807" on="0"/>
        <pt x="2050" y="950" on="0"/>
        <pt x="1958" y="950" on="1"/>
        <pt x="1870" y="950" on="0"/>
        <pt x="1780" y="785" on="0"/>
        <pt x="1780" y="633" on="1"/>
        <pt x="1780" y="-250" on="1"/>
        <pt x="1780" y="-336" on="0"/>
        <pt x="1858" y="-383" on="0"/>
        <pt x="1925" y="-383" on="1"/>
        <pt x="1974" y="-383" on="1"/>
        <pt x="1974" y="-492" on="1"/>
        <pt x="1468" y="-492" on="1"/>
        <pt x="1468" y="1206" on="1"/>
        <pt x="1468" y="1346" on="0"/>
        <pt x="1405" y="1458" on="0"/>
        <pt x="1335" y="1458" on="1"/>
        <pt x="1257" y="1458" on="0"/>
        <pt x="1161" y="1331" on="0"/>
        <pt x="1161" y="1196" on="1"/>
        <pt x="1161" y="238" on="1"/>
        <pt x="1161" y="190" on="0"/>
        <pt x="1186" y="134" on="0"/>
        <pt x="1236" y="109" on="0"/>
        <pt x="1298" y="109" on="1"/>
        <pt x="1315" y="109" on="1"/>
        <pt x="1315" y="0" on="1"/>
        <pt x="907" y="0" on="1"/>
        <pt x="862" y="145" on="1"/>
        <pt x="852" y="145" on="1"/>
        <pt x="801" y="57" on="0"/>
        <pt x="656" y="-20" on="0"/>
        <pt x="528" y="-20" on="1"/>
        <pt x="197" y="-20" on="0"/>
        <pt x="197" y="385" on="1"/>
        <pt x="197" y="844" on="1"/>
        <pt x="197" y="924" on="0"/>
        <pt x="142" y="989" on="0"/>
        <pt x="61" y="989" on="1"/>
        <pt x="53" y="989" on="1"/>
        <pt x="53" y="1098" on="1"/>
        <pt x="508" y="1098" on="1"/>
        <pt x="508" y="442" on="1"/>
        <pt x="508" y="311" on="0"/>
        <pt x="573" y="154" on="0"/>
        <pt x="664" y="154" on="1"/>
        <pt x="850" y="154" on="0"/>
        <pt x="850" y="465" on="1"/>
        <pt x="850" y="1110" on="1"/>
        <pt x="850" y="1352" on="0"/>
        <pt x="1102" y="1575" on="0"/>
        <pt x="1368" y="1575" on="1"/>
        <pt x="1436" y="1575" on="0"/>
        <pt x="1530" y="1556" on="1"/>
        <pt x="1780" y="1556" on="1"/>
        <pt x="1780" y="1219" on="1"/>
        <pt x="1780" y="1125" on="0"/>
        <pt x="1772" y="1049" on="1"/>
        <pt x="1763" y="958" on="1"/>
        <pt x="1782" y="958" on="1"/>
        <pt x="1814" y="1020" on="0"/>
        <pt x="1896" y="1091" on="0"/>
        <pt x="1991" y="1124" on="0"/>
        <pt x="2095" y="1124" on="1"/>
        <pt x="2253" y="1124" on="0"/>
        <pt x="2433" y="936" on="0"/>
        <pt x="2433" y="729" on="1"/>
      </contour>
    </TTGlyph>
</ttFont>
